<?xml version="1.0" encoding="utf-8"?>
<!-- Generator: Adobe Illustrator 27.7.0, SVG Export Plug-In . SVG Version: 6.00 Build 0)  -->
<svg version="1.1" id="Layer_1" xmlns="http://www.w3.org/2000/svg" xmlns:xlink="http://www.w3.org/1999/xlink" x="0px" y="0px"
	 viewBox="0 0 378 668" style="enable-background:new 0 0 378 668;" xml:space="preserve">
<g transform="translate(0.000000,720.000000) scale(0.100000,-0.100000)">
	<path d="M610.7,7188.3c-88.1-11.2-188.5-53.5-242-103.7c-49.1-46.8-97-148.3-112.6-239.8c-7.8-53.5-11.2-914.5-8.9-3035.6
		l3.3-2960.9l29-74.7c15.6-40.1,44.6-93.7,63.6-117.1c41.3-52.4,140.5-107.1,223-124.9c41.3-8.9,437.2-12.3,1309.3-12.3
		c1342.7,0,1313.7-1.1,1426.4,55.8c56.9,30.1,127.1,112.6,157.2,188.5l25.7,62.5l3.3,1330.5c2.2,1163.2,4.5,1329.3,19,1329.3
		c25.6,0,24.5,819.7,0,829.7c-13.4,4.5-16.7,30.1-16.7,134.9c0,107.1,3.3,128.2,16.7,128.2c14.5,0,16.7,30.1,16.7,200.7
		c0,169.5-2.2,200.7-16.7,200.7c-13.4,0-16.7,123.8-19,951.3c-3.3,894.4-4.5,953.5-24.5,1007c-52.4,146.1-165.1,228.6-341.3,249.8
		C3010.6,7201.7,725.6,7201.7,610.7,7188.3z M3378.7,3809.2V1132.7H1867.5H356.4v2676.5v2676.5h1511.1h1511.1V3809.2z"/>
</g>
</svg>
