<?xml version="1.0" encoding="utf-8"?>
<!-- Generator: Adobe Illustrator 27.5.0, SVG Export Plug-In . SVG Version: 6.00 Build 0)  -->
<svg version="1.1" id="Layer_1" xmlns="http://www.w3.org/2000/svg" xmlns:xlink="http://www.w3.org/1999/xlink" x="0px" y="0px"
	 viewBox="0 0 601.1 607.2" style="enable-background:new 0 0 601.1 607.2;" xml:space="preserve">
<style type="text/css">
	.st0{fill:#F6D039;}
	.st1{fill:#272B65;}
	.st2{fill:#B42C44;}
	.st3{fill:none;stroke:#73778D;stroke-width:1.9;stroke-miterlimit:10;}
</style>
<circle class="st0" cx="300" cy="302" r="297"/>
<path class="st1" d="M74.5,407v-1.4c0,0,4.8-0.5,6.4-1.4c1.6-0.9,2.5-1.9,2.6-3.1v-64c0-3.4-0.8-6-2.2-7.6c-1.4-1.6-3.6-2.4-6.8-2.4
	V326h53.1l3.8,16h-2.1c-0.4-1.3-0.9-2.7-1.6-4.2c-0.7-1.5-1.6-3.1-2.7-4.9c-1.1-1.7-2.5-3.1-4.1-4.3c-1.6-1.1-3.4-1.7-5.2-1.7H93.5
	v38h6.3c2.6-0.1,4.5-1.3,5.9-3.6c1.4-2.4,2.1-5.1,2.2-8.4h1.5v25h-1.6c-0.1-3.2-0.8-6-2.2-8.4c-1.4-2.4-3.3-3.6-5.7-3.6h-6.5v32.2
	c0,5.2,3,7.8,9,7.9v0.9H74.5z"/>
<path class="st1" d="M155,405.9h0.6v0.5h-23.1v-0.5h0.6c4.1,0,6.1-2.9,6.1-8.6v-32.6c0-1.8-0.6-3.3-1.8-4.5
	c-1.2-1.2-2.4-1.8-3.8-1.8h-1.2v-0.7l16.4-7.3v47C148.8,403,150.9,405.9,155,405.9z M146.7,336c-1.1,1.1-2.5,1.7-4.1,1.7
	c-1.6,0-3-0.6-4.1-1.7c-1.1-1.1-1.7-2.5-1.7-4.1c0-1.6,0.6-3,1.7-4.1c1.1-1.1,2.5-1.7,4.1-1.7c1.6,0,3,0.6,4.1,1.7
	c1.1,1.1,1.7,2.5,1.7,4.1C148.4,333.5,147.8,334.9,146.7,336z"/>
<path class="st1" d="M214.3,405.7h0.5v0.6h-23.1v-0.6h0.5c4.2,0,6.3-2.8,6.3-8.5v-29.6c0-9.8-3.3-14.8-9.8-14.8
	c-0.6,0-1.1,0-1.7,0.1c-2.2,0.2-4.1,0.9-5.7,2c-1.6,1.1-2.8,2.3-3.6,3.6c-0.8,1.4-1.3,2.6-1.7,3.8c-0.3,1.1-0.5,2.2-0.5,3.1V397
	c0,5.8,2,8.7,6.1,8.7h0.6v0.6h-23.2v-0.6h0.6c4.1,0,6.1-2.8,6.1-8.5v-32.6c0-1.8-0.6-3.3-1.8-4.5c-1.2-1.2-2.4-1.8-3.8-1.8h-1.2
	v-0.7l16.4-7.3l0.1,9.3l0.9-1.6c0.2-0.2,0.4-0.5,0.6-0.9c0.2-0.3,0.8-1,1.7-1.9c0.9-0.9,1.8-1.8,2.8-2.5c1-0.7,2.3-1.3,3.9-1.9
	c1.6-0.6,3.3-0.9,5-0.9c5.2,0,9.3,1.5,12.5,4.4c1.5,1.6,2.7,3.5,3.8,5.9c1,2.4,1.5,5.1,1.6,8.1V398
	C208.3,403.2,210.3,405.7,214.3,405.7z"/>
<path class="st1" d="M269.3,387.2l0.9,0.4c-0.4,1.2-1,2.5-1.8,4c-0.8,1.5-1.9,3.3-3.4,5.2s-3.1,3.7-4.9,5.3c-1.8,1.6-4,2.9-6.7,4
	c-2.7,1.1-5.5,1.7-8.4,1.7c-3.9,0-7.4-0.7-10.6-2.1c-3.2-1.4-5.8-3.2-7.8-5.3c-2-2.1-3.7-4.5-5-7.1c-1.4-2.6-2.3-5.1-2.9-7.4
	c-0.6-2.3-0.9-4.4-0.9-6.4c0-8.2,2.6-15.1,7.7-20.8c5.1-5.7,11.6-8.5,19.7-8.5c3.8,0,7.2,0.6,10.1,1.8c3,1.2,5.3,2.7,6.9,4.3
	c1.6,1.6,3.1,3.5,4.3,5.7c1.2,2.1,2,3.8,2.3,5c0.3,1.2,0.6,2.3,0.9,3.4l-42.3,12.5l0.1,0.4c1,5.9,3,10.8,6.1,14.8
	c3.1,4,6.7,6.3,10.8,6.9c1.1,0.2,2.1,0.2,3.1,0.2c2.5,0,5-0.5,7.3-1.5c2.3-1,4.2-2.2,5.7-3.6c1.5-1.4,2.9-3,4.2-4.9
	c1.3-1.9,2.3-3.4,2.9-4.6C268.3,389.5,268.9,388.3,269.3,387.2z M227.2,381.8L260,372l-0.1-0.5c-1.2-5.6-3.7-10.3-7.3-14.2
	c-3.6-3.9-7.5-5.8-11.6-5.8c-1.6,0-3.1,0.3-4.6,1c-3.8,1.6-6.6,5.3-8.4,11.1c-1.8,5.7-2.2,11.6-0.9,17.7L227.2,381.8z"/>
<path class="st1" d="M359.3,407h-16.2c-12.5-40.8-19.9-65.1-22.4-72.8c-0.7-2.4-1.8-4.1-3.1-5.2c-1.3-1.1-3.4-1.6-6.2-1.7V326H337
	v1.2c-1.9,0.1-3.2,0.7-4.1,1.8c-1,1.3-1.1,3.4-0.2,6.3l17.6,60.3l0.5,1.5l0.5-1.5c13.2-37.6,20.2-57.7,21-60.3
	c0.8-2.7,0.7-4.8-0.4-6.1c-0.8-1.1-2.1-1.8-3.9-2V326h16v1.2c-2.8,0.1-4.9,0.7-6.2,2c-1.4,1.2-2.4,2.9-3,4.9L352,399.5l0.2,0.9
	c0.4,1.1,0.8,2,1.1,2.6c0.3,0.6,1,1.2,2,1.8c1,0.6,2.3,0.9,3.9,0.9V407z"/>
<g id="XMLID_00000178915040423269448840000008446879612054635425_">
	<g>
		<path class="st2" d="M399.3,327.8c1.1,1.1,1.7,2.5,1.7,4.1s-0.6,3-1.7,4.1c-1.1,1.1-2.4,1.7-4,1.7s-3-0.6-4.1-1.7
			c-1.1-1.1-1.7-2.5-1.7-4.1s0.6-3,1.7-4.1c1.1-1.1,2.5-1.7,4.1-1.7S398.2,326.7,399.3,327.8z"/>
		<path class="st1" d="M407.5,406h1v1h-23v-1h0.6c4.2,0,6.4-2.8,6.4-8.5v-32.3c0-1.8-0.6-3.3-1.8-4.4c-1.2-1.2-2.5-1.8-3.9-1.8h-1.3
			v-0.7l16-7.2v46.5C401.5,403.2,403.5,406,407.5,406z"/>
	</g>
</g>
<path class="st1" d="M466.9,405.7h0.5v0.6h-23.1v-0.6h0.5c4.2,0,6.3-2.8,6.3-8.5v-29.6c0-9.8-3.3-14.8-9.8-14.8
	c-0.6,0-1.1,0-1.7,0.1c-2.2,0.2-4.1,0.9-5.7,2c-1.6,1.1-2.8,2.3-3.6,3.6c-0.8,1.4-1.3,2.6-1.7,3.8c-0.3,1.1-0.5,2.2-0.5,3.1V397
	c0,5.8,2,8.7,6.1,8.7h0.6v0.6h-23.2v-0.6h0.6c4.1,0,6.2-2.8,6.2-8.5v-32.6c0-1.8-0.6-3.3-1.8-4.5c-1.2-1.2-2.4-1.8-3.8-1.8h-1.2
	v-0.7l16.4-7.3l0.1,9.3l0.9-1.6c0.2-0.2,0.4-0.5,0.6-0.9c0.2-0.3,0.8-1,1.7-1.9c0.9-0.9,1.8-1.8,2.8-2.5c1-0.7,2.3-1.3,3.9-1.9
	c1.6-0.6,3.3-0.9,5-0.9c5.2,0,9.3,1.5,12.5,4.4c1.5,1.6,2.7,3.5,3.8,5.9c1,2.4,1.5,5.1,1.6,8.1V398
	C460.9,403.2,463,405.7,466.9,405.7z"/>
<path class="st1" d="M521.9,387.2l0.9,0.4c-0.4,1.2-1,2.5-1.8,4c-0.8,1.5-1.9,3.3-3.4,5.2c-1.5,2-3.1,3.7-4.9,5.3
	c-1.8,1.6-4,2.9-6.7,4c-2.7,1.1-5.5,1.7-8.4,1.7c-3.9,0-7.4-0.7-10.6-2.1c-3.2-1.4-5.8-3.2-7.8-5.3c-2-2.1-3.7-4.5-5-7.1
	c-1.4-2.6-2.3-5.1-2.9-7.4c-0.6-2.3-0.9-4.4-0.9-6.4c0-8.2,2.6-15.1,7.7-20.8c5.1-5.7,11.6-8.5,19.7-8.5c3.8,0,7.2,0.6,10.1,1.8
	c3,1.2,5.3,2.7,6.9,4.3c1.6,1.6,3.1,3.5,4.3,5.7c1.2,2.1,2,3.8,2.3,5c0.3,1.2,0.6,2.3,0.9,3.4l-42.3,12.5l0.1,0.4
	c1,5.9,3,10.8,6.2,14.8c3.1,4,6.7,6.3,10.8,6.9c1.1,0.2,2.1,0.2,3.1,0.2c2.5,0,5-0.5,7.3-1.5c2.3-1,4.2-2.2,5.7-3.6
	c1.5-1.4,2.9-3,4.2-4.9c1.3-1.9,2.3-3.4,2.9-4.6C521,389.5,521.5,388.3,521.9,387.2z M479.8,381.8l32.8-9.7l-0.1-0.5
	c-1.2-5.6-3.7-10.3-7.3-14.2c-3.6-3.9-7.5-5.8-11.6-5.8c-1.6,0-3.1,0.3-4.6,1c-3.8,1.6-6.6,5.3-8.4,11.1c-1.8,5.7-2.2,11.6-0.9,17.7
	L479.8,381.8z"/>
<line class="st3" x1="73.5" y1="318" x2="522.5" y2="318"/>
<g>
	<path class="st1" d="M295,315.3c0-4-0.2-7.9-0.1-11.9c0.1-2.4-0.6-4.4-2.2-5.9c-3.1-2.9-6.2-5.7-9.5-8.2c-3.9-2.8-7.9-5.5-12.1-7.8
		c-15.4-8.7-25.9-21.5-32.2-37.9c-4.4-11.5-5.9-23.5-4.8-35.7c1.2-13.8,5.6-26.5,13.6-37.8c0.2-0.3,0.5-0.6,0.9-0.9
		c-0.4,0.8-0.8,1.5-1.3,2.3c-7,12.8-10.3,26.6-9.9,41.1c0.5,17.4,5.7,33.2,16.6,46.9c9.3,11.6,21.1,19.4,35.9,22.1
		c14,2.6,27.2-0.1,39.2-7.7c16.2-10.2,25.9-25.2,30.4-43.5c5.2-21.2,2.4-41.4-8.4-60.4c-0.1-0.2-0.2-0.4-0.3-0.7c0,0,0-0.1,0.3-0.4
		c2.2,3.9,4.6,7.5,6.5,11.4c6.5,13.2,8.9,27.3,7.6,42c-1.5,17.6-8,33.1-20.1,46.1c-4.7,5.1-10.2,9.4-16.3,12.8
		c-6.1,3.5-12.1,7.2-17.5,11.8c-2,1.7-3.8,3.7-5.6,5.6c-1.1,1.2-1.4,2.7-1.4,4.3c0,4.2,0,8.3-0.1,12.5
		C301,315.3,298,315.3,295,315.3z"/>
</g>
<path class="st2" d="M357.5,222c-1,31-29.2,58-59,58c-35,0-58-39-57-56C241.8,218.9,357.9,210,357.5,222z"/>
</svg>
