<?xml version="1.0" encoding="utf-8"?>
<!-- Generator: Adobe Illustrator 27.5.0, SVG Export Plug-In . SVG Version: 6.00 Build 0)  -->
<svg version="1.1" id="Layer_1" xmlns="http://www.w3.org/2000/svg" xmlns:xlink="http://www.w3.org/1999/xlink" x="0px" y="0px"
	 viewBox="0 0 805.1 327.2" style="enable-background:new 0 0 805.1 327.2;" xml:space="preserve">
<style type="text/css">
	.st0{fill:#846A20;}
	.st1{fill:#F6D039;}
	.st2{fill:#272B65;}
	.st3{fill:#B42C44;}
	.st4{fill:none;stroke:#73778D;stroke-width:1.9;stroke-miterlimit:10;}
</style>
<path class="st0" d="M687,329H122C59.3,329,8.5,278.2,8.5,215.5v-94C8.5,58.8,59.3,8,122,8h565c62.7,0,113.5,50.8,113.5,113.5v94
	C800.5,278.2,749.7,329,687,329z"/>
<path class="st1" d="M691,321H118C55.3,321,4.5,270.2,4.5,207.5v-94C4.5,50.8,55.3,0,118,0h573c62.7,0,113.5,50.8,113.5,113.5v94
	C804.5,270.2,753.7,321,691,321z"/>
<path class="st2" d="M178.5,268v-1.4c0,0,4.8-0.5,6.4-1.4c1.6-0.9,2.5-1.9,2.6-3.1v-64c0-3.4-0.8-6-2.2-7.6
	c-1.4-1.6-3.6-2.4-6.8-2.4V187h53.1l3.8,16h-2.1c-0.4-1.3-0.9-2.7-1.6-4.2c-0.7-1.5-1.6-3.1-2.7-4.9c-1.1-1.7-2.5-3.1-4.1-4.3
	c-1.6-1.1-3.4-1.7-5.2-1.7h-22.1v38h6.3c2.6-0.1,4.5-1.3,5.9-3.6c1.4-2.4,2.1-5.1,2.2-8.4h1.5v25h-1.6c-0.1-3.2-0.8-6-2.2-8.4
	c-1.4-2.4-3.3-3.6-5.7-3.6h-6.5v32.2c0,5.2,3,7.8,9,7.9v0.9H178.5z"/>
<path class="st2" d="M259,266.9h0.6v0.5h-23.1v-0.5h0.6c4.1,0,6.1-2.9,6.1-8.6v-32.6c0-1.8-0.6-3.3-1.8-4.5
	c-1.2-1.2-2.4-1.8-3.8-1.8h-1.2v-0.7l16.4-7.3v47C252.8,264,254.9,266.9,259,266.9z M250.7,197c-1.1,1.1-2.5,1.7-4.1,1.7
	c-1.6,0-3-0.6-4.1-1.7c-1.1-1.1-1.7-2.5-1.7-4.1c0-1.6,0.6-3,1.7-4.1c1.1-1.1,2.5-1.7,4.1-1.7c1.6,0,3,0.6,4.1,1.7
	c1.1,1.1,1.7,2.5,1.7,4.1C252.4,194.5,251.8,195.9,250.7,197z"/>
<path class="st2" d="M318.3,266.7h0.5v0.6h-23.1v-0.6h0.5c4.2,0,6.3-2.8,6.3-8.5v-29.6c0-9.8-3.3-14.8-9.8-14.8
	c-0.6,0-1.1,0-1.7,0.1c-2.2,0.2-4.1,0.9-5.7,2c-1.6,1.1-2.8,2.3-3.6,3.6c-0.8,1.4-1.3,2.6-1.7,3.8c-0.3,1.1-0.5,2.2-0.5,3.1V258
	c0,5.8,2,8.7,6.1,8.7h0.6v0.6h-23.2v-0.6h0.6c4.1,0,6.1-2.8,6.1-8.5v-32.6c0-1.8-0.6-3.3-1.8-4.5c-1.2-1.2-2.4-1.8-3.8-1.8h-1.2
	v-0.7l16.4-7.3l0.1,9.3l0.9-1.6c0.2-0.2,0.4-0.5,0.6-0.9c0.2-0.3,0.8-1,1.7-1.9c0.9-0.9,1.8-1.8,2.8-2.5c1-0.7,2.3-1.3,3.9-1.9
	c1.6-0.6,3.3-0.9,5-0.9c5.2,0,9.3,1.5,12.5,4.4c1.5,1.6,2.7,3.5,3.8,5.9c1,2.4,1.5,5.1,1.6,8.1V259
	C312.3,264.2,314.3,266.7,318.3,266.7z"/>
<path class="st2" d="M373.3,248.2l0.9,0.4c-0.4,1.2-1,2.5-1.8,4c-0.8,1.5-1.9,3.3-3.4,5.2s-3.1,3.7-4.9,5.3c-1.8,1.6-4,2.9-6.7,4
	c-2.7,1.1-5.5,1.7-8.4,1.7c-3.9,0-7.4-0.7-10.6-2.1c-3.2-1.4-5.8-3.2-7.8-5.3c-2-2.1-3.7-4.5-5-7.1c-1.4-2.6-2.3-5.1-2.9-7.4
	c-0.6-2.3-0.9-4.4-0.9-6.4c0-8.2,2.6-15.1,7.7-20.8c5.1-5.7,11.6-8.5,19.7-8.5c3.8,0,7.2,0.6,10.1,1.8c3,1.2,5.3,2.7,6.9,4.3
	c1.6,1.6,3.1,3.5,4.3,5.7c1.2,2.1,2,3.8,2.3,5c0.3,1.2,0.6,2.3,0.9,3.4l-42.3,12.5l0.1,0.4c1,5.9,3,10.8,6.1,14.8
	c3.1,4,6.7,6.3,10.8,6.9c1.1,0.2,2.1,0.2,3.1,0.2c2.5,0,5-0.5,7.3-1.5c2.3-1,4.2-2.2,5.7-3.6c1.5-1.4,2.9-3,4.2-4.9
	c1.3-1.9,2.3-3.4,2.9-4.6C372.3,250.5,372.9,249.3,373.3,248.2z M331.2,242.8L364,233l-0.1-0.5c-1.2-5.6-3.7-10.3-7.3-14.2
	c-3.6-3.9-7.5-5.8-11.6-5.8c-1.6,0-3.1,0.3-4.6,1c-3.8,1.6-6.6,5.3-8.4,11.1c-1.8,5.7-2.2,11.6-0.9,17.7L331.2,242.8z"/>
<path class="st2" d="M463.3,268h-16.2c-12.5-40.8-19.9-65.1-22.4-72.8c-0.7-2.4-1.8-4.1-3.1-5.2c-1.3-1.1-3.4-1.6-6.2-1.7V187H441
	v1.2c-1.9,0.1-3.2,0.7-4.1,1.8c-1,1.3-1.1,3.4-0.2,6.3l17.6,60.3l0.5,1.5l0.5-1.5c13.2-37.6,20.2-57.7,21-60.3
	c0.8-2.7,0.7-4.8-0.4-6.1c-0.8-1.1-2.1-1.8-3.9-2V187h16v1.2c-2.8,0.1-4.9,0.7-6.2,2c-1.4,1.2-2.4,2.9-3,4.9L456,260.5l0.2,0.9
	c0.4,1.1,0.8,2,1.1,2.6c0.3,0.6,1,1.2,2,1.8c1,0.6,2.3,0.9,3.9,0.9V268z"/>
<g id="XMLID_00000178915040423269448840000008446879612054635425_">
	<g>
		<path class="st3" d="M503.3,188.8c1.1,1.1,1.7,2.5,1.7,4.1c0,1.6-0.6,3-1.7,4.1c-1.1,1.1-2.4,1.7-4,1.7s-3-0.6-4.1-1.7
			c-1.1-1.1-1.7-2.5-1.7-4.1c0-1.6,0.6-3,1.7-4.1c1.1-1.1,2.5-1.7,4.1-1.7S502.2,187.7,503.3,188.8z"/>
		<path class="st2" d="M511.5,267h1v1h-23v-1h0.6c4.2,0,6.4-2.8,6.4-8.5v-32.3c0-1.8-0.6-3.3-1.8-4.4c-1.2-1.2-2.5-1.8-3.9-1.8h-1.3
			v-0.7l16-7.2v46.5C505.5,264.2,507.5,267,511.5,267z"/>
	</g>
</g>
<path class="st2" d="M570.9,266.7h0.5v0.6h-23.1v-0.6h0.5c4.2,0,6.3-2.8,6.3-8.5v-29.6c0-9.8-3.3-14.8-9.8-14.8
	c-0.6,0-1.1,0-1.7,0.1c-2.2,0.2-4.1,0.9-5.7,2c-1.6,1.1-2.8,2.3-3.6,3.6c-0.8,1.4-1.3,2.6-1.7,3.8c-0.3,1.1-0.5,2.2-0.5,3.1V258
	c0,5.8,2,8.7,6.1,8.7h0.6v0.6h-23.2v-0.6h0.6c4.1,0,6.2-2.8,6.2-8.5v-32.6c0-1.8-0.6-3.3-1.8-4.5c-1.2-1.2-2.4-1.8-3.8-1.8h-1.2
	v-0.7l16.4-7.3l0.1,9.3l0.9-1.6c0.2-0.2,0.4-0.5,0.6-0.9c0.2-0.3,0.8-1,1.7-1.9c0.9-0.9,1.8-1.8,2.8-2.5c1-0.7,2.3-1.3,3.9-1.9
	c1.6-0.6,3.3-0.9,5-0.9c5.2,0,9.3,1.5,12.5,4.4c1.5,1.6,2.7,3.5,3.8,5.9c1,2.4,1.5,5.1,1.6,8.1V259
	C564.9,264.2,567,266.7,570.9,266.7z"/>
<path class="st2" d="M625.9,248.2l0.9,0.4c-0.4,1.2-1,2.5-1.8,4c-0.8,1.5-1.9,3.3-3.4,5.2c-1.5,2-3.1,3.7-4.9,5.3
	c-1.8,1.6-4,2.9-6.7,4c-2.7,1.1-5.5,1.7-8.4,1.7c-3.9,0-7.4-0.7-10.6-2.1c-3.2-1.4-5.8-3.2-7.8-5.3c-2-2.1-3.7-4.5-5-7.1
	c-1.4-2.6-2.3-5.1-2.9-7.4c-0.6-2.3-0.9-4.4-0.9-6.4c0-8.2,2.6-15.1,7.7-20.8c5.1-5.7,11.6-8.5,19.7-8.5c3.8,0,7.2,0.6,10.1,1.8
	c3,1.2,5.3,2.7,6.9,4.3c1.6,1.6,3.1,3.5,4.3,5.7c1.2,2.1,2,3.8,2.3,5c0.3,1.2,0.6,2.3,0.9,3.4l-42.3,12.5l0.1,0.4
	c1,5.9,3,10.8,6.2,14.8c3.1,4,6.7,6.3,10.8,6.9c1.1,0.2,2.1,0.2,3.1,0.2c2.5,0,5-0.5,7.3-1.5c2.3-1,4.2-2.2,5.7-3.6
	c1.5-1.4,2.9-3,4.2-4.9c1.3-1.9,2.3-3.4,2.9-4.6C625,250.5,625.5,249.3,625.9,248.2z M583.8,242.8l32.8-9.7l-0.1-0.5
	c-1.2-5.6-3.7-10.3-7.3-14.2c-3.6-3.9-7.5-5.8-11.6-5.8c-1.6,0-3.1,0.3-4.6,1c-3.8,1.6-6.6,5.3-8.4,11.1c-1.8,5.7-2.2,11.6-0.9,17.7
	L583.8,242.8z"/>
<line class="st4" x1="177.5" y1="179" x2="626.5" y2="179"/>
<g>
	<path class="st2" d="M399,176.3c0-4-0.2-7.9-0.1-11.9c0.1-2.4-0.6-4.4-2.2-5.9c-3.1-2.9-6.2-5.7-9.5-8.2c-3.9-2.8-7.9-5.5-12.1-7.8
		c-15.4-8.7-25.9-21.5-32.2-37.9c-4.4-11.5-5.9-23.5-4.8-35.7c1.2-13.8,5.6-26.5,13.6-37.8c0.2-0.3,0.5-0.6,0.9-0.9
		c-0.4,0.8-0.8,1.5-1.3,2.3c-7,12.8-10.3,26.6-9.9,41.1c0.5,17.4,5.7,33.2,16.6,46.9c9.3,11.6,21.1,19.4,35.9,22.1
		c14,2.6,27.2-0.1,39.2-7.7c16.2-10.2,25.9-25.2,30.4-43.5c5.2-21.2,2.4-41.4-8.4-60.4c-0.1-0.2-0.2-0.4-0.3-0.7c0,0,0-0.1,0.3-0.4
		c2.2,3.9,4.6,7.5,6.5,11.4c6.5,13.2,8.9,27.3,7.6,42c-1.5,17.6-8,33.1-20.1,46.1c-4.7,5.1-10.2,9.4-16.3,12.8
		c-6.1,3.5-12.1,7.2-17.5,11.8c-2,1.7-3.8,3.7-5.6,5.6c-1.1,1.2-1.4,2.7-1.4,4.3c0,4.2,0,8.3-0.1,12.5
		C405,176.3,402,176.3,399,176.3z"/>
</g>
<path class="st3" d="M461.5,83c-1,31-29.2,58-59,58c-35,0-58-39-57-56C345.8,79.9,461.9,71,461.5,83z"/>
</svg>
