<?xml version="1.0" encoding="utf-8"?>
<!-- Generator: Adobe Illustrator 27.7.0, SVG Export Plug-In . SVG Version: 6.00 Build 0)  -->
<svg version="1.1" id="Layer_1" xmlns="http://www.w3.org/2000/svg" xmlns:xlink="http://www.w3.org/1999/xlink" x="0px" y="0px"
	 viewBox="0 0 64 64" style="enable-background:new 0 0 64 64;" xml:space="preserve">
<style type="text/css">
	.st0{fill:#FFFFFF;}
</style>
<g id="Layer_2_00000139259405451791799660000003859772530066417546_">
	<g id="Layer_1-2">
		<g id="Info">
			<path class="st0" d="M54.6,9.4C42.1-3.1,21.9-3.1,9.4,9.4s-12.5,32.8,0,45.3s32.8,12.5,45.3,0c0,0,0,0,0,0
				C67.1,42.2,67.2,22,54.8,9.5C54.7,9.5,54.7,9.4,54.6,9.4z M51.1,51.1c-10.7,10.4-27.8,10.2-38.2-0.5c-10.2-10.5-10.2-27.2,0-37.6
				c10.5-10.5,27.6-10.5,38.2,0l0,0C61.6,23.5,61.6,40.5,51.1,51.1z"/>
			<path class="st0" d="M32,15c-2.6,0-4.7,2.1-4.7,4.7s2.1,4.7,4.7,4.7s4.7-2.1,4.7-4.7S34.6,15,32,15L32,15z"/>
			<rect x="27.7" y="27.9" class="st0" width="8.5" height="21.1"/>
		</g>
	</g>
</g>
</svg>
