<?xml version="1.0" encoding="utf-8"?>
<!-- Generator: Adobe Illustrator 27.5.0, SVG Export Plug-In . SVG Version: 6.00 Build 0)  -->
<svg version="1.1" id="Layer_1" xmlns="http://www.w3.org/2000/svg" xmlns:xlink="http://www.w3.org/1999/xlink" x="0px" y="0px"
	 viewBox="0 0 608.8 615" style="enable-background:new 0 0 608.8 615;" xml:space="preserve">
<style type="text/css">
	.st0{fill:#319338;}
	.st1{fill:#FFFFFF;}
</style>
<circle class="st0" cx="305.8" cy="309.9" r="298"/>
<g>
	<path class="st0" d="M96.7,258.9c7-110,345-15,356,9"/>
</g>
<g>
	<rect x="87.5" y="325" class="st1" width="449" height="1.9"/>
</g>
<g>
	<path class="st1" d="M175,416.9c0,1.6-1.1,3.7-3.2,6.5c-5.4,7-12.5,10.5-21.4,10.5c-18.2,0-27.4-10-27.4-30c0-14.5,2.2-28,6.6-40.5
		c5-14.3,11.6-21.4,19.6-21.4c9.3,0,15.7,7.7,19.2,23.1c1.9,8.4,2.9,15.3,2.9,20.9c0,0.9-0.5,1.7-1.6,2.6c-1.1,0.8-2.2,1.2-3.4,1.2
		c-2.8,0-4.6-1.2-5.2-3.5c-0.1-1.9-0.3-4.7-0.7-8.5c-0.6-5.1-1.7-10.4-3.2-16c-2.4-8.5-5.1-12.7-8-12.7c-2.7,0-6,5.5-9.9,16.5
		c-4.2,11.6-6.3,24.4-6.3,38.3c0,5.8,1,10.6,3,14.4c2.9,5.6,7.7,8.5,14.3,8.5c4.8,0,9.1-2.7,13-8c0.4-0.8,1.1-2,2.1-3.5
		c1.2-1.4,2.7-2.1,4.6-2.1c1.2,0,2.3,0.4,3.4,1.2C174.5,415.2,175,416,175,416.9z"/>
	<path class="st1" d="M233.8,428.3c0,0.9-0.5,1.7-1.5,2.5c-1,0.7-2.1,1.1-3.4,1.1c-18.2,0.4-29.4,0.6-33.5,0.6
		c-3.8,0-6.1-0.1-7.1-0.3c-2.4-0.5-3.7-1.7-3.7-3.7l-1.9-81.1c-0.1-2.5,1.4-3.8,4.3-4l35.6-1.9c3.4,0,5.1,1.2,5.1,3.6
		c0,2.2-1.4,3.4-4.1,3.5l-30.6,1.6l0.6,30.4h25.1c1.2,0,2.3,0.4,3.4,1.1c1,0.7,1.5,1.5,1.5,2.4s-0.5,1.7-1.5,2.4
		c-1,0.7-2.1,1.1-3.4,1.1h-24.9l0.8,37.5c2.5,0,7.4-0.2,14.7-0.4c6.1-0.2,11-0.2,14.7-0.2c3.4,0,5.5,0.1,6.5,0.3
		C232.7,425.4,233.8,426.6,233.8,428.3z"/>
	<path class="st1" d="M279.6,343.9c0,0.1-0.1,0.4-0.2,0.9l-19.7,84.1c-0.4,1.9-2.1,2.8-4.9,2.8s-4.3-1-4.7-3l-17.7-80.3
		c-0.1-0.5-0.2-0.8-0.2-0.7c0-0.9,0.5-1.7,1.6-2.6c1.1-0.8,2.2-1.3,3.4-1.3c1,0,2.1,0.3,3.2,0.9s1.7,1.3,1.9,2.1l12.5,59.4
		l14.6-63.1c0.2-0.7,0.8-1.4,1.8-2s2.1-0.9,3.1-0.9c1.2,0,2.4,0.4,3.4,1.2C279,342.2,279.6,343.1,279.6,343.9z"/>
	<path class="st1" d="M324.1,427.6c0,1.8-1.1,2.9-3.3,3.4c-0.9,0.2-3.1,0.3-6.4,0.3c-5.1,0-13.7-0.2-25.9-0.5
		c-1.2,0-2.3-0.4-3.3-1.2c-1-0.8-1.5-1.6-1.5-2.5c0-2.4,1.7-3.5,5.2-3.5l9.5,0.2l0.8-71.3h-10.9c-1.2,0-2.3-0.4-3.3-1.2
		c-1-0.7-1.5-1.6-1.5-2.5c0-1.8,1.1-2.9,3.2-3.4c1-0.2,3.1-0.3,6.4-0.3c5.1,0,13.8,0.2,26,0.5c1.2,0,2.3,0.4,3.3,1.2
		c1,0.8,1.5,1.6,1.5,2.5c0,2.4-1.7,3.5-5.2,3.5l-9.4-0.2l-1,71.3l10.9,0.2c1.2,0,2.3,0.4,3.3,1.1S324.1,426.7,324.1,427.6z"/>
	<path class="st1" d="M382.1,416.9c0,1.6-1.1,3.7-3.2,6.5c-5.4,7-12.5,10.5-21.4,10.5c-18.2,0-27.4-10-27.4-30
		c0-14.5,2.2-28,6.6-40.5c5-14.3,11.6-21.4,19.6-21.4c9.3,0,15.7,7.7,19.2,23.1c1.9,8.4,2.9,15.3,2.9,20.9c0,0.9-0.5,1.7-1.6,2.6
		c-1.1,0.8-2.2,1.2-3.4,1.2c-2.8,0-4.6-1.2-5.2-3.5c-0.1-1.9-0.3-4.7-0.7-8.5c-0.6-5.1-1.7-10.4-3.2-16c-2.4-8.5-5.1-12.7-8-12.7
		c-2.7,0-6,5.5-9.9,16.5c-4.2,11.6-6.3,24.4-6.3,38.3c0,5.8,1,10.6,3,14.4c2.9,5.6,7.7,8.5,14.3,8.5c4.8,0,9.1-2.7,13-8
		c0.4-0.8,1.1-2,2.1-3.5c1.2-1.4,2.7-2.1,4.6-2.1c1.2,0,2.3,0.4,3.4,1.2C381.6,415.2,382.1,416,382.1,416.9z"/>
	<path class="st1" d="M440.3,347.7l-1.2,81.1c0,0.9-0.5,1.8-1.6,2.6c-1.1,0.8-2.2,1.2-3.4,1.2s-2.3-0.4-3.4-1.3
		c-1.1-0.8-1.5-1.7-1.5-2.6l0.7-31.7l-29-0.5l0.3,31.6c0,0.9-0.6,1.7-1.7,2.5s-2.3,1.2-3.5,1.2s-2.4-0.4-3.4-1.2
		c-1.1-0.8-1.6-1.6-1.6-2.6l-0.5-81.3c0-0.9,0.5-1.8,1.5-2.6c1-0.8,2.1-1.2,3.4-1.2c1.2,0,2.4,0.4,3.4,1.2c1.1,0.8,1.6,1.7,1.7,2.6
		l0.3,42.5l29,0.6l0.5-42.5c0-0.9,0.5-1.8,1.6-2.6c1.1-0.8,2.2-1.2,3.4-1.2s2.3,0.4,3.4,1.3C439.8,345.9,440.3,346.8,440.3,347.7z"
		/>
	<path class="st1" d="M502.7,428.3c0,0.9-0.5,1.7-1.5,2.5c-1,0.7-2.1,1.1-3.4,1.1c-18.2,0.4-29.4,0.6-33.5,0.6
		c-3.8,0-6.1-0.1-7.1-0.3c-2.4-0.5-3.7-1.7-3.7-3.7l-1.9-81.1c-0.1-2.5,1.4-3.8,4.3-4l35.6-1.9c3.4,0,5.1,1.2,5.1,3.6
		c0,2.2-1.4,3.4-4.1,3.5l-30.6,1.6l0.6,30.4h25.1c1.2,0,2.3,0.4,3.4,1.1c1,0.7,1.5,1.5,1.5,2.4s-0.5,1.7-1.5,2.4
		c-1,0.7-2.1,1.1-3.4,1.1h-24.9l0.8,37.5c2.5,0,7.4-0.2,14.7-0.4c6.1-0.2,11-0.2,14.7-0.2c3.4,0,5.5,0.1,6.5,0.3
		C501.5,425.4,502.7,426.6,502.7,428.3z"/>
</g>
<g>
	<path class="st1" d="M100.7,240.2c117.8-174.3,313.3-16.5,346.5,0c1.8,0.9,3.9,0.5,5.2-0.9c7.7-8,37-35.8,76.5-41.3
		c3.8-0.5,6.5,3.6,4.4,6.8c-7.7,12.1-19.8,38.6-14.5,78.7c0.5,4-4.1,6.6-7.2,4.1c-13.3-10.7-38.1-27.6-56.4-22.8
		c-0.2,0.1-0.4,0.1-0.6,0.2c-9.2,3.7-249.8,99.5-341.9,12.5c-3.5-3.3-0.1-9,4.5-7.5l12.3,4c2.7,0.9,5.6-1,5.9-3.8c0.2-2.1-1-4-3-4.7
		l-33.1-11.8c-2.4-0.8-3.6-3.5-2.7-5.9C97.7,245.2,99,242.6,100.7,240.2z"/>
	<path class="st1" d="M230,314.9c-46.1,0-89.2-9.4-117.9-36.6c-2.2-2.1-2-4.9-0.9-6.7c1.1-1.9,3.5-3.3,6.4-2.4l12.3,4
		c1,0.3,2.1,0.2,3-0.4c0.9-0.6,1.5-1.5,1.6-2.6c0.2-1.6-0.8-3.1-2.3-3.7L99,254.7c-1.4-0.5-2.5-1.6-3.2-2.9
		c-0.6-1.4-0.6-2.8-0.1-4.2c1.1-2.8,2.5-5.4,4.2-7.9l0,0c44.6-66,105.5-92.2,181.2-78c61.7,11.6,117.9,47.3,148.1,66.4
		c8.1,5.1,14.5,9.2,18.4,11.1c1.4,0.7,3,0.4,4.1-0.7c8.1-8.4,37.5-36.1,77-41.5c2.1-0.3,4.2,0.6,5.3,2.4c1.2,1.8,1.2,4,0,5.8
		c-7.6,12.1-19.6,38.3-14.3,78.1c0.3,2.3-0.7,4.3-2.7,5.5c-2,1.1-4.3,0.9-6.1-0.5c-13.1-10.5-37.6-27.3-55.6-22.6
		c-0.2,0-0.3,0.1-0.4,0.1C448,268.7,331.8,314.9,230,314.9z M115.8,270.8c-1.4,0-2.4,0.9-3,1.8c-0.7,1.1-0.9,2.9,0.6,4.4
		c91.5,86.4,330.7-8.7,340.9-12.7c0.2-0.1,0.4-0.2,0.7-0.2c18.7-4.9,43.9,12.3,57.2,23c1.4,1.1,2.9,0.9,3.9,0.3s2-1.8,1.8-3.6
		c-5.4-40.4,6.9-67.1,14.6-79.4c0.8-1.2,0.7-2.6,0-3.8c-0.8-1.2-2.1-1.8-3.5-1.6c-39,5.4-68,32.7-75.9,41c-1.6,1.7-4.2,2.1-6.3,1.1
		c-4-2-10.5-6.1-18.6-11.2c-30.2-19.2-86.2-54.8-147.5-66.3c-74.8-14.1-135.1,11.9-179.2,77.1l0,0c-1.6,2.3-2.9,4.8-4,7.5
		c-0.4,0.9-0.3,1.8,0.1,2.7c0.4,0.9,1.1,1.6,2.1,1.9l33.2,11.8c2.4,0.8,3.8,3.2,3.6,5.7c-0.2,1.6-1.1,3.1-2.4,4
		c-1.4,0.9-3.1,1.1-4.7,0.6l-12.3-4C116.5,270.8,116.1,270.8,115.8,270.8z"/>
</g>
<g>
	<circle class="st0" cx="156.6" cy="215.2" r="5.4"/>
</g>
<g>
	<path class="st0" d="M205.4,276.7c-0.8,3.5,4.8-4.9,6.3-7.4c17.3-27.1,0-63.3-9-66.7C202.7,202.5,214.4,237.8,205.4,276.7z"/>
</g>
<g>
	<path class="st0" d="M275.2,241.8l37.1-15.4c0.5-0.2,1-0.2,1.5,0l45,15.5c2,0.7,1.9,3.6-0.1,4.1l-43.2,11.6c-0.4,0.1-0.8,0.1-1.2,0
		L275.5,246C273.4,245.3,273.3,242.6,275.2,241.8z"/>
</g>
<g>
	<path class="st1" d="M90.4,339.2c-0.6,0-1.1,0-1.7,0l0.1-1c16,0.9,17.4-10.8,17.5-11.8c-0.2-1.1-2.8-14.2-16.5-13.7v-1
		c14.9-0.5,17.5,14.5,17.6,14.6v0.1v0.1C107.2,326.5,106.1,339.2,90.4,339.2z"/>
</g>
<g>
	<path class="st1" d="M535.8,339.1c-14.9-1.2-16.1-13.4-16.1-13.5c0-0.2,1.1-12.7,17-11.8l-0.1,1c-14.9-0.8-15.9,10.3-16,10.8
		c0,0.4,1.2,11.3,15.2,12.5L535.8,339.1z"/>
</g>
</svg>
