<?xml version="1.0" encoding="utf-8"?>
<!-- Generator: Adobe Illustrator 27.5.0, SVG Export Plug-In . SVG Version: 6.00 Build 0)  -->
<svg version="1.1" id="Layer_1" xmlns="http://www.w3.org/2000/svg" xmlns:xlink="http://www.w3.org/1999/xlink" x="0px" y="0px"
	 viewBox="0 0 799.2 336.5" style="enable-background:new 0 0 799.2 336.5;" xml:space="preserve">
<style type="text/css">
	.st0{fill:#236326;}
	.st1{fill:#319338;}
	.st2{fill:#FFFFFF;}
</style>
<g>
	<path class="st0" d="M680.2,330.2H117.9c-62.7,0-113.6-50.9-113.6-113.6v-93.2C4.3,60.7,55.1,9.9,117.9,9.9h562.3
		c62.7,0,113.6,50.9,113.6,113.6v93.2C793.8,279.4,742.9,330.2,680.2,330.2z"/>
</g>
<g>
	<path class="st1" d="M686.7,320.5H114.3c-62.7,0-113.6-50.9-113.6-113.6v-93.2C0.7,51,51.5,0.2,114.3,0.2h572.4
		c62.7,0,113.6,50.9,113.6,113.6v93.2C800.3,269.7,749.4,320.5,686.7,320.5z"/>
</g>
<g>
	<path class="st1" d="M183.6,126.2c7-110,345-15,356,9"/>
</g>
<g>
	<rect x="174.4" y="192.3" class="st2" width="449" height="1.9"/>
</g>
<g>
	<path class="st2" d="M261.9,284.2c0,1.6-1.1,3.7-3.2,6.5c-5.4,7-12.5,10.5-21.4,10.5c-18.2,0-27.4-10-27.4-30
		c0-14.5,2.2-28,6.6-40.5c5-14.3,11.6-21.4,19.6-21.4c9.3,0,15.7,7.7,19.2,23.1c1.9,8.4,2.9,15.3,2.9,20.9c0,0.9-0.5,1.7-1.6,2.6
		c-1.1,0.8-2.2,1.2-3.4,1.2c-2.8,0-4.6-1.2-5.2-3.5c-0.1-1.9-0.3-4.7-0.7-8.5c-0.6-5.1-1.7-10.4-3.2-16c-2.4-8.5-5.1-12.7-8-12.7
		c-2.7,0-6,5.5-9.9,16.5c-4.2,11.6-6.3,24.4-6.3,38.3c0,5.8,1,10.6,3,14.4c2.9,5.6,7.7,8.5,14.3,8.5c4.8,0,9.1-2.7,13-8
		c0.4-0.8,1.1-2,2.1-3.5c1.2-1.4,2.7-2.1,4.6-2.1c1.2,0,2.3,0.4,3.4,1.2C261.4,282.5,261.9,283.3,261.9,284.2z"/>
	<path class="st2" d="M320.7,295.6c0,0.9-0.5,1.7-1.5,2.5c-1,0.7-2.1,1.1-3.4,1.1c-18.2,0.4-29.4,0.6-33.5,0.6
		c-3.8,0-6.1-0.1-7.1-0.3c-2.4-0.5-3.7-1.7-3.7-3.7l-1.9-81.1c-0.1-2.5,1.4-3.8,4.3-4l35.6-1.9c3.4,0,5.1,1.2,5.1,3.6
		c0,2.2-1.4,3.4-4.1,3.5l-30.6,1.6l0.6,30.4h25.1c1.2,0,2.3,0.4,3.4,1.1c1,0.7,1.5,1.5,1.5,2.4c0,0.9-0.5,1.7-1.5,2.4
		c-1,0.7-2.1,1.1-3.4,1.1h-24.9l0.8,37.5c2.5,0,7.4-0.2,14.7-0.4c6.1-0.2,11-0.2,14.7-0.2c3.4,0,5.5,0.1,6.5,0.3
		C319.6,292.7,320.7,293.9,320.7,295.6z"/>
	<path class="st2" d="M366.5,211.2c0,0.1-0.1,0.4-0.2,0.9l-19.7,84.1c-0.4,1.9-2.1,2.8-4.9,2.8c-2.8,0-4.3-1-4.7-3l-17.7-80.3
		c-0.1-0.5-0.2-0.8-0.2-0.7c0-0.9,0.5-1.7,1.6-2.6c1.1-0.8,2.2-1.3,3.4-1.3c1,0,2.1,0.3,3.2,0.9c1.1,0.6,1.7,1.3,1.9,2.1l12.5,59.4
		l14.6-63.1c0.2-0.7,0.8-1.4,1.8-2c1-0.6,2.1-0.9,3.1-0.9c1.2,0,2.4,0.4,3.4,1.2C365.9,209.5,366.5,210.4,366.5,211.2z"/>
	<path class="st2" d="M411,294.9c0,1.8-1.1,2.9-3.3,3.4c-0.9,0.2-3.1,0.3-6.4,0.3c-5.1,0-13.7-0.2-25.9-0.5c-1.2,0-2.3-0.4-3.3-1.2
		c-1-0.8-1.5-1.6-1.5-2.5c0-2.4,1.7-3.5,5.2-3.5l9.5,0.2l0.8-71.3h-10.9c-1.2,0-2.3-0.4-3.3-1.2c-1-0.7-1.5-1.6-1.5-2.5
		c0-1.8,1.1-2.9,3.2-3.4c1-0.2,3.1-0.3,6.4-0.3c5.1,0,13.8,0.2,26,0.5c1.2,0,2.3,0.4,3.3,1.2c1,0.8,1.5,1.6,1.5,2.5
		c0,2.4-1.7,3.5-5.2,3.5l-9.4-0.2l-1,71.3l10.9,0.2c1.2,0,2.3,0.4,3.3,1.1S411,294,411,294.9z"/>
	<path class="st2" d="M469,284.2c0,1.6-1.1,3.7-3.2,6.5c-5.4,7-12.5,10.5-21.4,10.5c-18.2,0-27.4-10-27.4-30c0-14.5,2.2-28,6.6-40.5
		c5-14.3,11.6-21.4,19.6-21.4c9.3,0,15.7,7.7,19.2,23.1c1.9,8.4,2.9,15.3,2.9,20.9c0,0.9-0.5,1.7-1.6,2.6c-1.1,0.8-2.2,1.2-3.4,1.2
		c-2.8,0-4.6-1.2-5.2-3.5c-0.1-1.9-0.3-4.7-0.7-8.5c-0.6-5.1-1.7-10.4-3.2-16c-2.4-8.5-5.1-12.7-8-12.7c-2.7,0-6,5.5-9.9,16.5
		c-4.2,11.6-6.3,24.4-6.3,38.3c0,5.8,1,10.6,3,14.4c2.9,5.6,7.7,8.5,14.3,8.5c4.8,0,9.1-2.7,13-8c0.4-0.8,1.1-2,2.1-3.5
		c1.2-1.4,2.7-2.1,4.6-2.1c1.2,0,2.3,0.4,3.4,1.2C468.5,282.5,469,283.3,469,284.2z"/>
	<path class="st2" d="M527.2,215l-1.2,81.1c0,0.9-0.5,1.8-1.6,2.6c-1.1,0.8-2.2,1.2-3.4,1.2c-1.2,0-2.3-0.4-3.4-1.3
		c-1.1-0.8-1.5-1.7-1.5-2.6l0.7-31.7l-29-0.5l0.3,31.6c0,0.9-0.6,1.7-1.7,2.5c-1.1,0.8-2.3,1.2-3.5,1.2c-1.2,0-2.4-0.4-3.4-1.2
		c-1.1-0.8-1.6-1.6-1.6-2.6l-0.5-81.3c0-0.9,0.5-1.8,1.5-2.6c1-0.8,2.1-1.2,3.4-1.2c1.2,0,2.4,0.4,3.4,1.2c1.1,0.8,1.6,1.7,1.7,2.6
		l0.3,42.5l29,0.6l0.5-42.5c0-0.9,0.5-1.8,1.6-2.6c1.1-0.8,2.2-1.2,3.4-1.2c1.2,0,2.3,0.4,3.4,1.3
		C526.7,213.2,527.2,214.1,527.2,215z"/>
	<path class="st2" d="M589.6,295.6c0,0.9-0.5,1.7-1.5,2.5c-1,0.7-2.1,1.1-3.4,1.1c-18.2,0.4-29.4,0.6-33.5,0.6
		c-3.8,0-6.1-0.1-7.1-0.3c-2.4-0.5-3.7-1.7-3.7-3.7l-1.9-81.1c-0.1-2.5,1.4-3.8,4.3-4l35.6-1.9c3.4,0,5.1,1.2,5.1,3.6
		c0,2.2-1.4,3.4-4.1,3.5l-30.6,1.6l0.6,30.4h25.1c1.2,0,2.3,0.4,3.4,1.1c1,0.7,1.5,1.5,1.5,2.4c0,0.9-0.5,1.7-1.5,2.4
		c-1,0.7-2.1,1.1-3.4,1.1h-24.9l0.8,37.5c2.5,0,7.4-0.2,14.7-0.4c6.1-0.2,11-0.2,14.7-0.2c3.4,0,5.5,0.1,6.5,0.3
		C588.4,292.7,589.6,293.9,589.6,295.6z"/>
</g>
<g>
	<path class="st2" d="M187.6,107.5c117.8-174.3,313.3-16.5,346.5,0c1.8,0.9,3.9,0.5,5.2-0.9c7.7-8,37-35.8,76.5-41.3
		c3.8-0.5,6.5,3.6,4.4,6.8c-7.7,12.1-19.8,38.6-14.5,78.7c0.5,4-4.1,6.6-7.2,4.1c-13.3-10.7-38.1-27.6-56.4-22.8
		c-0.2,0.1-0.4,0.1-0.6,0.2c-9.2,3.7-249.8,99.5-341.9,12.5c-3.5-3.3-0.1-9,4.5-7.5l12.3,4c2.7,0.9,5.6-1,5.9-3.8c0.2-2.1-1-4-3-4.7
		L186.2,121c-2.4-0.8-3.6-3.5-2.7-5.9C184.6,112.5,185.9,109.9,187.6,107.5z"/>
	<path class="st2" d="M316.9,182.2c-46.1,0-89.2-9.4-117.9-36.6c-2.2-2.1-2-4.9-0.9-6.7c1.1-1.9,3.5-3.3,6.4-2.4l12.3,4
		c1,0.3,2.1,0.2,3-0.4s1.5-1.5,1.6-2.6c0.2-1.6-0.8-3.1-2.3-3.7l-33.2-11.8c-1.4-0.5-2.5-1.6-3.2-2.9c-0.6-1.4-0.6-2.8-0.1-4.2
		c1.1-2.8,2.5-5.4,4.2-7.9l0,0C231.4,41,292.3,14.8,368,29c61.7,11.6,117.9,47.3,148.1,66.4c8.1,5.1,14.5,9.2,18.4,11.1
		c1.4,0.7,3,0.4,4.1-0.7c8.1-8.4,37.5-36.1,77-41.5c2.1-0.3,4.2,0.6,5.3,2.4c1.2,1.8,1.2,4,0,5.8c-7.6,12.1-19.6,38.3-14.3,78.1
		c0.3,2.3-0.7,4.3-2.7,5.5c-2,1.1-4.3,0.9-6.1-0.5c-13.1-10.5-37.6-27.3-55.6-22.6c-0.2,0-0.3,0.1-0.4,0.1
		C534.9,136,418.7,182.2,316.9,182.2z M202.7,138.1c-1.4,0-2.4,0.9-3,1.8c-0.7,1.1-0.9,2.9,0.6,4.4c91.5,86.4,330.7-8.7,340.9-12.7
		c0.2-0.1,0.4-0.2,0.7-0.2c18.7-4.9,43.9,12.3,57.2,23c1.4,1.1,2.9,0.9,3.9,0.3c1-0.6,2-1.8,1.8-3.6c-5.4-40.4,6.9-67.1,14.6-79.4
		c0.8-1.2,0.7-2.6,0-3.8c-0.8-1.2-2.1-1.8-3.5-1.6c-39,5.4-68,32.7-75.9,41c-1.6,1.7-4.2,2.1-6.3,1.1c-4-2-10.5-6.1-18.6-11.2
		C484.9,78,428.9,42.4,367.6,30.9C292.8,16.8,232.5,42.8,188.4,108l0,0c-1.6,2.3-2.9,4.8-4,7.5c-0.4,0.9-0.3,1.8,0.1,2.7
		c0.4,0.9,1.1,1.6,2.1,1.9l33.2,11.8c2.4,0.8,3.8,3.2,3.6,5.7c-0.2,1.6-1.1,3.1-2.4,4c-1.4,0.9-3.1,1.1-4.7,0.6l-12.3-4
		C203.4,138.1,203,138.1,202.7,138.1z"/>
</g>
<g>
	<circle class="st1" cx="243.5" cy="82.5" r="5.4"/>
</g>
<g>
	<path class="st1" d="M292.3,144c-0.8,3.5,4.8-4.9,6.3-7.4c17.3-27.1,0-63.3-9-66.7C289.6,69.8,301.3,105.1,292.3,144z"/>
</g>
<g>
	<path class="st1" d="M362.1,109.1l37.1-15.4c0.5-0.2,1-0.2,1.5,0l45,15.5c2,0.7,1.9,3.6-0.1,4.1l-43.2,11.6c-0.4,0.1-0.8,0.1-1.2,0
		l-38.8-11.6C360.3,112.6,360.2,109.9,362.1,109.1z"/>
</g>
<g>
	<path class="st2" d="M177.3,206.5c-0.6,0-1.1,0-1.7,0l0.1-1c16,0.9,17.4-10.8,17.5-11.8c-0.2-1.1-2.8-14.2-16.5-13.7l0-1
		c14.9-0.5,17.5,14.5,17.6,14.6l0,0.1l0,0.1C194.1,193.8,193,206.5,177.3,206.5z"/>
</g>
<g>
	<path class="st2" d="M622.7,206.4c-14.9-1.2-16.1-13.4-16.1-13.5c0-0.2,1.1-12.7,17-11.8l-0.1,1c-14.9-0.8-15.9,10.3-16,10.8
		c0,0.4,1.2,11.3,15.2,12.5L622.7,206.4z"/>
</g>
</svg>
