<?xml version="1.0" encoding="utf-8"?>
<!-- Generator: Adobe Illustrator 27.5.0, SVG Export Plug-In . SVG Version: 6.00 Build 0)  -->
<svg version="1.1" id="Layer_1" xmlns="http://www.w3.org/2000/svg" xmlns:xlink="http://www.w3.org/1999/xlink" x="0px" y="0px"
	 viewBox="0 0 1245.6 576" style="enable-background:new 0 0 1245.6 576;" xml:space="preserve">
<style type="text/css">
	.st0{fill:#991A1A;}
	.st1{fill:#D92F27;}
	.st2{fill:#FCED1E;}
	.st3{opacity:0.56;}
	.st4{fill:#FFFFFF;}
	.st5{opacity:0.55;}
	.st6{opacity:0.74;}
	.st7{fill:#F9F9F9;}
</style>
<g transform="translate(0.000000,437.000000) scale(0.100000,-0.100000)">
	<g id="XMLID_00000045584325377347404830000016845031160268513699_">
		<g>
			<path class="st0" d="M12336.2,1596.6c3.9-702.3,1.3-1109.7-9.1-1197c-11.8-121.7-75.8-390.2-126.8-535.7
				c-36.6-107.1-138.5-294.9-215.6-398.1c-206.5-276.4-497.9-466.9-859.9-558.1l-111.1-27.8l-4698.1-5.3
				c-3375.5-2.6-4734.6,0-4826.1,10.6c-526.7,60.8-972.3,383.6-1191.8,863.7c-48.4,104.5-139.8,431.2-163.4,578
				c-7.8,54.2-13.1,490.7-13.1,1178.4c0,920.5,2.6,1111,19.6,1210.2c113.7,669.2,636.4,1169.2,1300.3,1247.2
				c143.8,15.9,9413.1,17.2,9559.5,1.3c658.6-75.4,1163.1-540.9,1309.4-1208.9C12328.4,2674.5,12332.3,2505.2,12336.2,1596.6z
				 M9444.2,260.8c23.5,227.5,23.5,222.2-1.3,235.4c-34,18.5-220.9,27.8-298,15.9c-87.6-13.2-149-41-207.8-92.6
				c-75.8-67.5-104.5-136.2-104.5-244.7c0-120.4,17-152.1,171.2-313.5c66.6-70.1,121.5-138.9,121.5-152.1
				c0-48.9-30.1-70.1-117.6-84.6c-45.7-6.6-87.6-15.9-90.2-19.8c-3.9-2.6,5.2-42.3,19.6-88.6c30.1-95.2,41.8-100.5,175.1-76.7
				c167.3,30.4,270.5,113.7,279.7,226.2c6.5,72.7-14.4,124.3-86.3,222.2C9192,39.9,9180.2,76.9,9231.2,123.2
				c20.9,19.8,47,25.1,111.1,25.1C9436.4,148.3,9432.5,144.4,9444.2,260.8z M9452.1,1021.3c0,17.2-368.5,19.8-3240.9,19.8
				s-3240.9-2.6-3240.9-19.8c0-17.2,368.5-19.8,3240.9-19.8S9452.1,1004.1,9452.1,1021.3z M8708.5,414.2l5.2,183.8l-87.6,4
				c-47,2.6-90.2-1.3-94.1-9.3c-13.1-19.8,18.3-455,32.7-473.5c7.8-7.9,35.3-14.5,61.4-13.2c45.7,2.6,49.7,5.3,62.7,63.5
				C8698,203.9,8705.9,313.7,8708.5,414.2z M8315.1,572.9c0,9.3-250.9,4-287.5-6.6c-26.1-7.9-36.6-25.1-56.2-93.9
				c-64-227.5-101.9-343.9-112.4-343.9s-56.2,136.2-117.6,354.5l-28.8,95.2l-74.5-1.3c-56.2-1.3-295.3-30.4-312.3-37
				c-5.2-2.6,66.6-169.3,130.7-298.9c190.8-388.8,205.2-432.5,218.2-649.4c5.2-103.2,13.1-193.1,17-199.7
				c10.5-17.2,247,6.6,266.6,26.5c9.1,9.3,22.2,88.6,30.1,197.1c11.8,168,17,190.5,65.3,297.6
				C8162.2,158.9,8315.1,543.8,8315.1,572.9z M8079.9,2480.1c0,13.2-9.1,37-20.9,52.9c-10.5,15.9-34,29.1-52.3,29.1
				c-37.9,0-83.6-42.3-83.6-79.4c0-34.4,44.4-79.4,78.4-79.4C8034.1,2403.4,8079.9,2448.3,8079.9,2480.1z M7638.2,2043.6
				c40.5,66.1,70.6,121.7,68,121.7c-3.9,0-28.8-17.2-54.9-38.4c-116.3-92.6-247-130.9-309.7-88.6c-17,11.9-45.7,46.3-61.4,78
				c-27.4,51.6-30.1,72.7-30.1,267.2c0,116.4,3.9,247.3,10.5,291l9.1,79.4l-28.8-46.3c-203.9-332-360.7-476.1-517.5-476.1
				c-151.6,0-295.3,171.9-393.4,476.1c-14.4,47.6-41.8,141.5-58.8,209l-30.1,124.3l-30.1-130.9c-32.7-149.5-113.7-376.9-166-465.6
				c-53.6-92.6-143.8-182.5-207.8-207.6c-69.3-26.5-145.1-17.2-220.9,27.8c-78.4,46.3-215.6,197.1-301.9,332
				c-41.8,66.1-84.9,132.3-94.1,145.5c-17,23.8-17,23.8-9.1-1.3c5.2-14.5,11.8-107.1,15.7-207.6c10.5-252.6-23.5-410-103.2-465.6
				c-81-58.2-232.6,0-390.7,148.1c-49.7,46.3-90.2,80.7-90.2,75.4c0-9.3,480.9-876.9,495.3-895.4c5.2-5.3,37.9-1.3,73.2,10.6
				c223.5,67.5,585.5,103.2,1065.1,103.2c465.2,0,803.7-34.4,988-99.2c68-22.5,71.9-22.5,79.7-1.3
				C7414.7,1608.5,7537.5,1874.3,7638.2,2043.6z M7544.1,3105.7c0,67.5-32.7,124.3-86.3,150.8c-87.6,42.3-186.9,5.3-222.2-82
				c-43.1-104.5,31.4-228.8,137.2-228.8C7477.4,2945.6,7544.1,3007.8,7544.1,3105.7z M7154.6,0.2c34,116.4,28.8,288.3-13.1,379.6
				c-54.9,119-179,207.6-334.5,236.7c-115,21.2-368.5,10.6-396-17.2c-18.3-18.5,15.7-1195.6,35.3-1216.8
				c14.4-14.5,249.6,14.5,266.6,31.7c7.8,7.9,15.7,64.8,18.3,128.3l5.2,116.4l88.9,29.1C7012.2-251.1,7105-162.5,7154.6,0.2z
				 M6464.6,3349c31.4,63.5,34,168,3.9,226.2c-28.8,56.9-104.5,120.4-162,136.2c-57.5,17.2-73.2,17.2-134.6-1.3
				c-117.6-33.1-190.8-144.2-180.3-271.1c6.5-78,30.1-119,107.2-181.2c44.4-37,58.8-41,138.5-41c78.4,0,96.7,5.3,145.1,39.7
				C6412.4,3278.9,6449,3319.9,6464.6,3349z M6203.3,534.5c5.2,39.7,2.6,43.6-41.8,55.5c-88.9,23.8-265.3,27.8-350.2,9.3
				c-185.6-42.3-283.6-130.9-324.1-289.6c-22.2-84.6-13.1-170.6,27.4-257.9c11.8-26.5,84.9-112.4,163.4-190.5
				c117.6-117.7,141.1-149.5,141.1-182.5c0-51.6-39.2-76.7-145.1-93.9c-45.7-7.9-87.6-18.5-94.1-23.8c-5.2-5.3,3.9-51.6,20.9-101.8
				c28.8-87.3,31.4-91.3,73.2-95.2c112.4-10.6,301.9,48.9,379,120.4c39.2,37,79.7,123,79.7,174.6c0,55.5-51,158.7-120.2,244.7
				C5906.6,34.6,5884.4,114,5938,162.9c20.9,18.5,52.3,26.5,130.7,30.4c78.4,2.6,103.2,9.3,103.2,22.5
				C6171.9,238.3,6195.4,471.1,6203.3,534.5z M5251.9,338.8l9.1,150.8l-31.4-10.6c-17-5.3-77.1-13.2-132-15.9
				c-56.2-4-118.9,0-141.1,6.6l-39.2,14.5V371.9c0-153.4,27.4-962.9,32.7-968.1c3.9-5.3,205.2,21.2,249.6,31.7
				c27.4,6.6,27.4,14.5,36.6,379.6C5240.1,20.1,5248,255.5,5251.9,338.8z M5227.1,643c52.3,78,28.8,190.5-51,239.4
				c-86.3,52.9-198.6,23.8-239.1-60.8C4845.5,625.8,5108.2,464.5,5227.1,643z M5093.8,2945.6c146.4,0,218.2,164,120.2,272.5
				c-78.4,86-210.4,70.1-264-33.1C4893.8,3073.9,4970.9,2945.6,5093.8,2945.6z M4791.9,174.8c1.3,239.4-111.1,379.6-346.3,436.5
				c-84.9,19.8-358.1,25.1-436.5,7.9c-31.4-6.6-40.5-15.9-44.4-47.6c-5.2-51.6,23.5-1081.9,32.7-1146.7c7.8-48.9,9.1-50.3,54.9-43.6
				c27.4,2.6,81,9.3,120.2,13.2c39.2,4,78.4,11.9,87.6,17.2c19.6,11.9,27.4,63.5,28.8,178.6c1.3,60.8,6.5,88.6,17,88.6
				c9.1,0,82.3-66.1,162-146.8l146.4-146.8l40.5,30.4c23.5,17.2,56.2,50.3,74.5,75.4l32.7,42.3l-84.9,112.4
				c-47,60.8-86.3,115.1-86.3,120.4c0,5.3,30.1,41,66.6,80.7C4752.7-51.4,4791.9,42.5,4791.9,174.8z M4478.3,2496
				c68,0,99.3,99.2,44.4,137.6c-15.7,11.9-35.3,21.2-43.1,21.2s-27.4-9.3-43.1-21.2C4380.2,2593.8,4410.3,2496,4478.3,2496z
				 M3694.2,252.8c14.4,60.8,37.9,337.3,30.1,357.1c-6.5,17.2-28.8,21.2-122.8,19.8c-62.7,0-142.4-7.9-175.1-17.2
				c-98-27.8-218.2-100.5-279.7-169.3c-260.1-292.3-167.3-813.4,172.5-972.1c75.8-35.7,239.2-74.1,288.8-67.5
				c35.3,4,56.2,47.6,71.9,145.5l7.8,48.9l-61.4,9.3c-181.6,25.1-277,136.2-277,318.7c0,161.4,84.9,259.2,245.7,284.4
				C3671.9,222.4,3688.9,230.4,3694.2,252.8z"/>
			<path class="st0" d="M9442.9,496.2c24.8-13.2,24.8-7.9,1.3-235.4c-11.8-116.4-7.8-112.4-101.9-112.4c-64,0-90.2-5.3-111.1-25.1
				c-51-46.3-39.2-83.3,74.5-235.4c71.9-97.9,92.8-149.5,86.3-222.2c-9.1-112.4-112.4-195.7-279.7-226.2
				c-133.3-23.8-145.1-18.5-175.1,76.7c-14.4,46.3-23.5,86-19.6,88.6c2.6,4,44.4,13.2,90.2,19.8c87.6,14.5,117.6,35.7,117.6,84.6
				c0,13.2-54.9,82-121.5,152.1c-154.2,161.4-171.2,193.1-171.2,313.5c0,108.5,28.8,177.2,104.5,244.7
				c58.8,51.6,120.2,79.4,207.8,92.6C9222.1,524,9408.9,514.7,9442.9,496.2z"/>
			<path class="st0" d="M8713.7,598l-5.2-183.8c-2.6-100.5-10.5-210.3-19.6-244.7c-13.1-58.2-17-60.8-62.7-63.5
				c-26.1-1.3-53.6,5.3-61.4,13.2c-14.4,18.5-45.7,453.7-32.7,473.5c3.9,7.9,47,11.9,94.1,9.3L8713.7,598z"/>
			<path class="st0" d="M8027.6,566.3c36.6,10.6,287.5,15.9,287.5,6.6c0-29.1-152.9-414-261.4-660
				c-48.4-107.1-53.6-129.6-65.3-297.6c-7.8-108.5-20.9-187.8-30.1-197.1c-19.6-19.8-256.1-43.6-266.6-26.5
				c-3.9,6.6-11.8,96.5-17,199.7c-13.1,216.9-27.4,260.6-218.2,649.4c-64,129.6-135.9,296.3-130.7,298.9c17,6.6,256.1,35.7,312.3,37
				l74.5,1.3l28.8-95.2c61.4-218.2,107.2-354.5,117.6-354.5s48.4,116.4,112.4,343.9C7991,541.2,8001.5,558.4,8027.6,566.3z"/>
			<path class="st0" d="M7141.6,379.8c41.8-91.3,47-263.2,13.1-379.6c-49.7-162.7-142.4-251.3-329.3-312.1l-88.9-29.1l-5.2-116.4
				c-2.6-63.5-10.5-120.4-18.3-128.3c-17-17.2-252.2-46.3-266.6-31.7c-19.6,21.2-53.6,1198.3-35.3,1216.8
				c27.4,27.8,281,38.4,396,17.2C6962.5,587.5,7086.7,498.8,7141.6,379.8z M6882.8-17c49.7,124.3,6.5,223.5-98,224.8
				c-17,0-22.2-21.2-30.1-101.8c-11.8-150.8-10.5-228.8,6.5-228.8C6797.9-122.8,6863.2-65.9,6882.8-17z"/>
			<path class="st0" d="M6784.8,207.9c104.5-1.3,147.7-100.5,98-224.8c-19.6-48.9-84.9-105.8-121.5-105.8c-17,0-18.3,78-6.5,228.8
				C6762.6,186.7,6767.8,207.9,6784.8,207.9z"/>
			<path class="st0" d="M6161.5,590.1c44.4-11.9,47-15.9,41.8-55.5c-7.8-63.5-31.4-296.3-31.4-318.7c0-13.2-24.8-19.8-103.2-22.5
				c-78.4-4-109.8-11.9-130.7-30.4c-53.6-48.9-31.4-128.3,74.5-259.2c69.3-86,120.2-189.1,120.2-244.7c0-51.6-40.5-137.6-79.7-174.6
				c-77.1-71.4-266.6-130.9-379-120.4c-41.8,4-44.4,7.9-73.2,95.2c-17,50.3-26.1,96.5-20.9,101.8c6.5,5.3,48.4,15.9,94.1,23.8
				c105.9,17.2,145.1,42.3,145.1,93.9c0,33.1-23.5,64.8-141.1,182.5c-78.4,78-151.6,164-163.4,190.5
				c-40.5,87.3-49.7,173.3-27.4,257.9c40.5,158.7,138.5,247.3,324.1,289.6C5896.2,617.9,6072.6,613.9,6161.5,590.1z"/>
			<path class="st0" d="M5261.1,489.6l-9.1-150.8c-3.9-83.3-11.8-318.7-15.7-523.7c-9.1-365-9.1-373-36.6-379.6
				c-44.4-10.6-245.7-37-249.6-31.7c-5.2,5.3-32.7,814.7-32.7,968.1v112.4l39.2-14.5c22.2-6.6,84.9-10.6,141.1-6.6
				c54.9,2.6,115,10.6,132,15.9L5261.1,489.6z"/>
			<path class="st0" d="M5176.1,882.4c79.7-48.9,103.2-161.4,51-239.4c-118.9-178.6-381.6-17.2-290.1,178.6
				C4977.5,906.2,5089.9,935.3,5176.1,882.4z"/>
			<path class="st0" d="M4445.6,611.3c235.2-56.9,347.6-197.1,346.3-436.5c0-132.3-39.2-226.2-134.6-328
				c-36.6-39.7-66.6-75.4-66.6-80.7c0-5.3,39.2-59.5,86.3-120.4l84.9-112.4l-32.7-42.3c-18.3-25.1-51-58.2-74.5-75.4l-40.5-30.4
				L4467.8-468c-79.7,80.7-152.9,146.8-162,146.8c-10.5,0-15.7-27.8-17-88.6c-1.3-115.1-9.1-166.6-28.8-178.6
				c-9.1-5.3-48.4-13.2-87.6-17.2c-39.2-4-92.8-10.6-120.2-13.2c-45.7-6.6-47-5.3-54.9,43.6c-9.1,64.8-37.9,1095.1-32.7,1146.7
				c3.9,31.7,13.1,41,44.4,47.6C4087.5,636.4,4360.6,631.1,4445.6,611.3z M4444.3-48.7c53.6,63.5,60.1,156.1,13.1,199.7
				c-35.3,33.1-120.2,52.9-134.6,31.7c-11.8-21.2-24.8-257.9-15.7-284.4C4320.1-133.4,4394.6-104.3,4444.3-48.7z"/>
			<path class="st0" d="M4457.3,151c47-43.6,40.5-136.2-13.1-199.7c-49.7-55.5-124.1-84.6-137.2-52.9
				c-9.1,26.5,3.9,263.2,15.7,284.4C4337.1,203.9,4422.1,184.1,4457.3,151z"/>
			<path class="st0" d="M3724.2,609.9c7.8-19.8-15.7-296.3-30.1-357.1c-5.2-22.5-22.2-30.4-99.3-42.3
				c-160.7-25.1-245.7-123-245.7-284.4c0-182.5,95.4-293.6,277-318.7l61.4-9.3l-7.8-48.9c-15.7-97.9-36.6-141.5-71.9-145.5
				c-49.7-6.6-213,31.7-288.8,67.5c-339.8,158.7-432.6,679.8-172.5,972.1c61.4,68.8,181.6,141.5,279.7,169.3
				c32.7,9.3,112.4,17.2,175.1,17.2C3695.5,631.1,3717.7,627.1,3724.2,609.9z"/>
		</g>
		<g>
		</g>
	</g>
</g>
<g transform="translate(0.000000,437.000000) scale(0.100000,-0.100000)">
	<g id="XMLID_00000182526749224791307010000011494811158000868523_">
		<g>
			<path class="st1" d="M12417.2,1719.3c4-702.3,1.3-1109.7-9.3-1197c-11.9-121.7-76.7-390.2-128.3-535.7
				c-37-107.1-140.2-294.9-218.2-398.1c-209-276.4-503.9-466.9-870.3-558.1l-112.4-27.8l-4754.7-5.3
				c-3416.3-2.6-4791.8,0-4884.4,10.6c-533,60.8-984,383.6-1206.2,863.7C184.5-23.9,91.9,302.8,68.1,449.6
				C60.2,503.8,54.9,940.3,54.9,1628c0,920.5,2.6,1111,19.8,1210.2c115.1,669.2,644.1,1169.2,1316,1247.2
				c145.5,15.9,9526.7,17.2,9674.8,1.3c666.6-75.4,1177.1-540.9,1325.2-1208.9C12409.3,2797.2,12413.3,2627.9,12417.2,1719.3z
				 M9490.3,383.5c23.8,227.5,23.8,222.2-1.3,235.4c-34.4,18.5-223.5,27.8-301.6,15.9c-88.6-13.2-150.8-41-210.3-92.6
				c-76.7-67.5-105.8-136.2-105.8-244.7c0-120.4,17.2-152.1,173.3-313.5c67.5-70.1,123-138.9,123-152.1c0-48.9-30.4-70.1-119-84.6
				c-46.3-6.6-88.6-15.9-91.3-19.8c-4-2.6,5.3-42.3,19.8-88.6c30.4-95.2,42.3-100.5,177.2-76.7c169.3,30.4,273.8,113.7,283,226.2
				c6.6,72.7-14.5,124.3-87.3,222.2c-115.1,152.1-127,189.1-75.4,235.4c21.2,19.8,47.6,25.1,112.4,25.1
				C9482.4,271,9478.4,267.1,9490.3,383.5z M9498.3,1144c0,17.2-373,19.8-3280,19.8s-3280-2.6-3280-19.8c0-17.2,373-19.8,3280-19.8
				S9498.3,1126.8,9498.3,1144z M8745.7,536.9l5.3,183.8l-88.6,4c-47.6,2.6-91.3-1.3-95.2-9.3c-13.2-19.8,18.5-455,33.1-473.5
				c7.9-7.9,35.7-14.5,62.2-13.2c46.3,2.6,50.3,5.3,63.5,63.5C8735.1,326.6,8743.1,436.4,8745.7,536.9z M8347.6,695.6
				c0,9.3-253.9,4-291-6.6c-26.5-7.9-37-25.1-56.9-93.9C7935,367.6,7896.6,251.2,7886,251.2c-10.6,0-56.9,136.2-119,354.5
				l-29.1,95.2l-75.4-1.3c-56.9-1.3-298.9-30.4-316.1-37c-5.3-2.6,67.5-169.3,132.3-298.9c193.1-388.8,207.6-432.5,220.9-649.4
				c5.3-103.2,13.2-193.1,17.2-199.7c10.6-17.2,250,6.6,269.8,26.5c9.3,9.3,22.5,88.6,30.4,197.1c11.9,168,17.2,190.5,66.1,297.6
				C8192.9,281.6,8347.6,666.5,8347.6,695.6z M8109.5,2602.8c0,13.2-9.3,37-21.2,52.9c-10.6,15.9-34.4,29.1-52.9,29.1
				c-38.4,0-84.6-42.3-84.6-79.4c0-34.4,45-79.4,79.4-79.4C8063.2,2526.1,8109.5,2571,8109.5,2602.8z M7662.5,2166.3
				c41,66.1,71.4,121.7,68.8,121.7c-4,0-29.1-17.2-55.5-38.4c-117.7-92.6-250-130.9-313.5-88.6c-17.2,11.9-46.3,46.3-62.2,78
				c-27.8,51.6-30.4,72.7-30.4,267.2c0,116.4,4,247.3,10.6,291l9.3,79.4l-29.1-46.3c-206.3-332-365-476.1-523.7-476.1
				c-153.4,0-298.9,171.9-398.1,476.1c-14.5,47.6-42.3,141.5-59.5,209l-30.4,124.3l-30.4-130.9c-33.1-149.5-115.1-376.9-168-465.6
				c-54.2-92.6-145.5-182.5-210.3-207.6c-70.1-26.5-146.8-17.2-223.5,27.8c-79.4,46.3-218.2,197.1-305.5,332
				c-42.3,66.1-86,132.3-95.2,145.5c-17.2,23.8-17.2,23.8-9.3-1.3c5.3-14.5,11.9-107.1,15.9-207.6c10.6-252.6-23.8-410-104.5-465.6
				c-82-58.2-235.4,0-395.5,148.1c-50.3,46.3-91.3,80.7-91.3,75.4c0-9.3,486.7-876.9,501.3-895.4c5.3-5.3,38.4-1.3,74.1,10.6
				c226.2,67.5,592.5,103.2,1077.9,103.2c470.8,0,813.4-34.4,999.9-99.2c68.8-22.5,72.7-22.5,80.7-1.3
				C7436.3,1731.2,7560.7,1997,7662.5,2166.3z M7567.3,3228.4c0,67.5-33.1,124.3-87.3,150.8c-88.6,42.3-189.1,5.3-224.8-82
				c-43.6-104.5,31.7-228.8,138.9-228.8C7499.8,3068.3,7567.3,3130.5,7567.3,3228.4z M7173.1,122.9
				c34.4,116.4,29.1,288.3-13.2,379.6c-55.5,119-181.2,207.6-338.6,236.7c-116.4,21.2-373,10.6-400.7-17.2
				c-18.5-18.5,15.9-1195.6,35.7-1216.8c14.5-14.5,252.6,14.5,269.8,31.7c7.9,7.9,15.9,64.8,18.5,128.3l5.3,116.4l89.9,29.1
				C7029-128.4,7122.9-39.8,7173.1,122.9z M6474.8,3471.7c31.7,63.5,34.4,168,4,226.2c-29.1,56.9-105.8,120.4-164,136.2
				c-58.2,17.2-74.1,17.2-136.2-1.3c-119-33.1-193.1-144.2-182.5-271.1c6.6-78,30.4-119,108.5-181.2c45-37,59.5-41,140.2-41
				c79.4,0,97.9,5.3,146.8,39.7C6421.9,3401.6,6458.9,3442.6,6474.8,3471.7z M6210.3,657.2c5.3,39.7,2.6,43.6-42.3,55.5
				c-89.9,23.8-268.5,27.8-354.5,9.3c-187.8-42.3-287-130.9-328-289.6c-22.5-84.6-13.2-170.6,27.8-257.9
				c11.9-26.5,86-112.4,165.3-190.5c119-117.7,142.8-149.5,142.8-182.5c0-51.6-39.7-76.7-146.8-93.9c-46.3-7.9-88.6-18.5-95.2-23.8
				c-5.3-5.3,4-51.6,21.2-101.8c29.1-87.3,31.7-91.3,74.1-95.2c113.7-10.6,305.5,48.9,383.6,120.4c39.7,37,80.7,123,80.7,174.6
				c0,55.5-51.6,158.7-121.7,244.7c-107.1,130.9-129.6,210.3-75.4,259.2c21.2,18.5,52.9,26.5,132.3,30.4
				c79.4,2.6,104.5,9.3,104.5,22.5C6178.5,361,6202.4,593.8,6210.3,657.2z M5247.4,461.5l9.3,150.8l-31.7-10.6
				c-17.2-5.3-78-13.2-133.6-15.9c-56.9-4-120.4,0-142.8,6.6l-39.7,14.5V494.6c0-153.4,27.8-962.9,33.1-968.1
				c4-5.3,207.6,21.2,252.6,31.7c27.8,6.6,27.8,14.5,37,379.6C5235.5,142.7,5243.5,378.2,5247.4,461.5z M5222.3,765.7
				c52.9,78,29.1,190.5-51.6,239.4c-87.3,52.9-201,23.8-242-60.8C4836.1,748.5,5101.9,587.1,5222.3,765.7z M5087.4,3068.3
				c148.1,0,220.9,164,121.7,272.5c-79.4,86-212.9,70.1-267.2-33.1C4885,3196.6,4963.1,3068.3,5087.4,3068.3z M4781.9,297.5
				c1.3,239.4-112.4,379.6-350.5,436.5c-86,19.8-362.4,25.1-441.7,7.9c-31.7-6.6-41-15.9-45-47.6c-5.3-51.6,23.8-1081.9,33.1-1146.7
				c7.9-48.9,9.3-50.3,55.5-43.6c27.8,2.6,82,9.3,121.7,13.2c39.7,4,79.4,11.9,88.6,17.2c19.8,11.9,27.8,63.5,29.1,178.6
				c1.3,60.8,6.6,88.6,17.2,88.6c9.3,0,83.3-66.1,164-146.8L4602-492.1l41,30.4c23.8,17.2,56.9,50.3,75.4,75.4l33.1,42.3l-86,112.4
				c-47.6,60.8-87.3,115.1-87.3,120.4c0,5.3,30.4,41,67.5,80.7C4742.2,71.3,4781.9,165.2,4781.9,297.5z M4464.5,2618.7
				c68.8,0,100.5,99.2,45,137.6c-15.9,11.9-35.7,21.2-43.6,21.2s-27.8-9.3-43.6-21.2C4365.3,2716.5,4395.7,2618.7,4464.5,2618.7z
				 M3670.9,375.5c14.5,60.8,38.4,337.3,30.4,357.1c-6.6,17.2-29.1,21.2-124.3,19.8c-63.5,0-144.2-7.9-177.2-17.2
				c-99.2-27.8-220.9-100.5-283-169.3c-263.2-292.3-169.3-813.4,174.6-972.1c76.7-35.7,242-74.1,292.3-67.5
				c35.7,4,56.9,47.6,72.7,145.5l7.9,48.9l-62.2,9.3c-183.8,25.1-280.4,136.2-280.4,318.7c0,161.4,86,259.2,248.6,284.4
				C3648.4,345.1,3665.6,353,3670.9,375.5z"/>
			<path class="st2" d="M9489,618.9c25.1-13.2,25.1-7.9,1.3-235.4c-11.9-116.4-7.9-112.4-103.2-112.4c-64.8,0-91.3-5.3-112.4-25.1
				c-51.6-46.3-39.7-83.3,75.4-235.4c72.7-97.9,93.9-149.5,87.3-222.2c-9.3-112.4-113.7-195.7-283-226.2
				c-134.9-23.8-146.8-18.5-177.2,76.7c-14.5,46.3-23.8,86-19.8,88.6c2.6,4,45,13.2,91.3,19.8c88.6,14.5,119,35.7,119,84.6
				c0,13.2-55.5,82-123,152.1c-156.1,161.4-173.3,193.1-173.3,313.5c0,108.5,29.1,177.2,105.8,244.7
				c59.5,51.6,121.7,79.4,210.3,92.6C9265.5,646.7,9454.6,637.4,9489,618.9z"/>
			<path class="st2" d="M8751,720.7l-5.3-183.8c-2.6-100.5-10.6-210.3-19.8-244.7c-13.2-58.2-17.2-60.8-63.5-63.5
				c-26.5-1.3-54.2,5.3-62.2,13.2c-14.5,18.5-46.3,453.7-33.1,473.5c4,7.9,47.6,11.9,95.2,9.3L8751,720.7z"/>
			<path class="st2" d="M8056.6,689c37,10.6,291,15.9,291,6.6c0-29.1-154.7-414-264.5-660C8034.1-71.5,8028.9-94,8017-262
				c-7.9-108.5-21.2-187.8-30.4-197.1c-19.8-19.8-259.2-43.6-269.8-26.5c-4,6.6-11.9,96.5-17.2,199.7
				c-13.2,216.9-27.8,260.6-220.9,649.4c-64.8,129.6-137.6,296.3-132.3,298.9c17.2,6.6,259.2,35.7,316.1,37l75.4,1.3l29.1-95.2
				c62.2-218.2,108.5-354.5,119-354.5c10.6,0,48.9,116.4,113.7,343.9C8019.6,663.9,8030.2,681,8056.6,689z"/>
			<path class="st2" d="M7159.9,502.5c42.3-91.3,47.6-263.2,13.2-379.6c-50.3-162.7-144.2-251.3-333.3-312.1l-89.9-29.1l-5.3-116.4
				c-2.6-63.5-10.6-120.4-18.5-128.3c-17.2-17.2-255.3-46.3-269.8-31.7c-19.8,21.2-54.2,1198.3-35.7,1216.8
				c27.8,27.8,284.4,38.4,400.7,17.2C6978.7,710.1,7104.4,621.5,7159.9,502.5z M6898,105.7c50.3,124.3,6.6,223.5-99.2,224.8
				c-17.2,0-22.5-21.2-30.4-101.8C6756.5,77.9,6757.8-0.1,6775-0.1C6812.1-0.1,6878.2,56.8,6898,105.7z"/>
			<path class="st1" d="M6798.8,330.6c105.8-1.3,149.5-100.5,99.2-224.8c-19.8-48.9-86-105.8-123-105.8c-17.2,0-18.5,78-6.6,228.8
				C6776.4,309.4,6781.6,330.6,6798.8,330.6z"/>
			<path class="st2" d="M6168,712.8c45-11.9,47.6-15.9,42.3-55.5c-7.9-63.5-31.7-296.3-31.7-318.7c0-13.2-25.1-19.8-104.5-22.5
				c-79.4-4-111.1-11.9-132.3-30.4c-54.2-48.9-31.7-128.3,75.4-259.2c70.1-86,121.7-189.1,121.7-244.7c0-51.6-41-137.6-80.7-174.6
				c-78-71.4-269.8-130.9-383.6-120.4c-42.3,4-45,7.9-74.1,95.2c-17.2,50.3-26.5,96.5-21.2,101.8c6.6,5.3,48.9,15.9,95.2,23.8
				c107.1,17.2,146.8,42.3,146.8,93.9c0,33.1-23.8,64.8-142.8,182.5c-79.4,78-153.4,164-165.3,190.5c-41,87.3-50.3,173.3-27.8,257.9
				c41,158.7,140.2,247.3,328,289.6C5899.5,740.6,6078,736.6,6168,712.8z"/>
			<path class="st2" d="M5256.7,612.3l-9.3-150.8c-4-83.3-11.9-318.7-15.9-523.7c-9.3-365-9.3-373-37-379.6
				c-45-10.6-248.6-37-252.6-31.7c-5.3,5.3-33.1,814.7-33.1,968.1V607l39.7-14.5c22.5-6.6,86-10.6,142.8-6.6
				c55.5,2.6,116.4,10.6,133.6,15.9L5256.7,612.3z"/>
			<path class="st2" d="M5170.7,1005.1c80.7-48.9,104.5-161.4,51.6-239.4c-120.4-178.6-386.2-17.2-293.6,178.6
				C4969.7,1028.9,5083.4,1058,5170.7,1005.1z"/>
			<path class="st2" d="M4431.4,733.9c238.1-56.9,351.8-197.1,350.5-436.5c0-132.3-39.7-226.2-136.2-328
				c-37-39.7-67.5-75.4-67.5-80.7c0-5.3,39.7-59.5,87.3-120.4l86-112.4l-33.1-42.3c-18.5-25.1-51.6-58.2-75.4-75.4l-41-30.4
				l-148.1,146.8c-80.7,80.7-154.7,146.8-164,146.8c-10.6,0-15.9-27.8-17.2-88.6c-1.3-115.1-9.3-166.6-29.1-178.6
				c-9.3-5.3-48.9-13.2-88.6-17.2c-39.7-4-93.9-10.6-121.7-13.2c-46.3-6.6-47.6-5.3-55.5,43.6c-9.3,64.8-38.4,1095.1-33.1,1146.7
				c4,31.7,13.2,41,45,47.6C4069,759.1,4345.4,753.8,4431.4,733.9z M4430.1,74c54.2,63.5,60.8,156.1,13.2,199.7
				c-35.7,33.1-121.7,52.9-136.2,31.7c-11.9-21.2-25.1-257.9-15.9-284.4C4304.4-10.7,4379.8,18.4,4430.1,74z"/>
			<path class="st1" d="M4443.3,273.7c47.6-43.6,41-136.2-13.2-199.7c-50.3-55.5-125.6-84.6-138.9-52.9
				c-9.3,26.5,4,263.2,15.9,284.4C4321.6,326.6,4407.6,306.7,4443.3,273.7z"/>
			<path class="st2" d="M3701.3,732.6c7.9-19.8-15.9-296.3-30.4-357.1c-5.3-22.5-22.5-30.4-100.5-42.3
				c-162.7-25.1-248.6-123-248.6-284.4c0-182.5,96.5-293.6,280.4-318.7l62.2-9.3l-7.9-48.9c-15.9-97.9-37-141.5-72.7-145.5
				c-50.3-6.6-215.6,31.7-292.3,67.5c-343.9,158.7-437.8,679.8-174.6,972.1c62.2,68.8,183.8,141.5,283,169.3
				c33.1,9.3,113.7,17.2,177.2,17.2C3672.2,753.8,3694.7,749.8,3701.3,732.6z"/>
		</g>
		<g>
		</g>
	</g>
</g>
<g>
	<g>
		<path class="st2" d="M514.8,287.9c44.1-17.7,184.5-17.8,221.8-0.5c0.4,0.2,0.7,0.3,1,0.5c0,0,22.3-66.8,57.9-102.5
			c0,0-89.1,107-62.4-44.6c0,0-71.3,151.5-107-26.7c0,0-26.7,178.3-107,26.7c0,0,26.7,142.6-62.4,44.6L514.8,287.9z"/>
		<path d="M738.1,289l-0.8-0.4c-0.3-0.2-0.7-0.3-1-0.5c-37.1-17.2-177.6-16.9-221.2,0.5l-0.6,0.3l-0.3-0.6l-61.3-108.5l4.6,5.1
			c24.6,27.1,42.5,38.2,53.1,32.9c20.2-10,8-76.1,7.9-76.8l-0.9-5l2.4,4.5c22.8,43.1,43.3,63.4,61,60.3c32-5.5,44.4-86,44.5-86.8
			l0.7-4.4l0.9,4.3c10.9,54.7,26.3,83.7,45.5,86c29.9,3.6,59.7-58.8,60-59.5l2.5-5.2l-1,5.7c-8.3,46.9-6.3,73.6,5.8,79.2
			c13,6.1,35.1-13.9,47-26.2c2.7-3.2,5.4-6.2,8.3-9.1l1.1,1c-0.4,0.5-3.7,4.4-8.6,9.5c-30.1,36.4-49,92.1-49.2,92.7L738.1,289z
			 M460.8,190.7l54.4,96.2c44.5-17.3,184.7-17.5,221.8-0.2c0.1,0,0.2,0.1,0.3,0.1c2.3-6.5,17.9-50,42.3-83.5
			c-12.5,11.5-29.2,23.5-40.4,18.3c-12.4-5.7-14.9-31.2-7.6-75.7c-7.4,14.3-31.1,55.8-56.4,55.8c-0.9,0-1.8-0.1-2.8-0.2
			c-19.5-2.4-35-30.4-46-83.2c-3,16.9-16,79-45.1,84c-17.8,3-38.1-16.1-60.4-57c2.5,15.6,8.6,64.8-9.5,73.8
			C500.7,224.4,483.7,214.9,460.8,190.7z"/>
	</g>
	<g>
		<circle class="st2" cx="626.3" cy="78.4" r="26.7"/>
		<path d="M626.3,105.9c-15.2,0-27.5-12.3-27.5-27.5s12.3-27.5,27.5-27.5s27.5,12.3,27.5,27.5S641.4,105.9,626.3,105.9z M626.3,52.4
			c-14.3,0-26,11.6-26,26s11.6,26,26,26c14.3,0,26-11.6,26-26S640.6,52.4,626.3,52.4z"/>
	</g>
	<g>
		<circle class="st2" cx="804.5" cy="176.5" r="8.9"/>
		<path d="M804.5,186.1c-5.3,0-9.7-4.3-9.7-9.7c0-5.3,4.3-9.7,9.7-9.7c5.3,0,9.7,4.3,9.7,9.7C814.2,181.8,809.9,186.1,804.5,186.1z
			 M804.5,168.3c-4.5,0-8.1,3.7-8.1,8.1c0,4.5,3.7,8.1,8.1,8.1s8.1-3.7,8.1-8.1C812.7,172,809,168.3,804.5,168.3z"/>
	</g>
	<g>
		<circle class="st2" cx="448" cy="167.5" r="8.9"/>
		<path d="M448,177.2c-5.3,0-9.7-4.3-9.7-9.7s4.3-9.7,9.7-9.7c5.3,0,9.7,4.3,9.7,9.7S453.3,177.2,448,177.2z M448,159.4
			c-4.5,0-8.1,3.7-8.1,8.1s3.7,8.1,8.1,8.1c4.5,0,8.1-3.7,8.1-8.1S452.5,159.4,448,159.4z"/>
	</g>
	<g>
		<circle class="st2" cx="510.4" cy="114.1" r="17.8"/>
		<path d="M510.4,132.7c-10.3,0-18.6-8.3-18.6-18.6s8.3-18.6,18.6-18.6c10.3,0,18.6,8.3,18.6,18.6S520.6,132.7,510.4,132.7z
			 M510.4,97c-9.4,0-17.1,7.7-17.1,17.1s7.7,17.1,17.1,17.1c9.4,0,17.1-7.7,17.1-17.1S519.8,97,510.4,97z"/>
	</g>
	<g>
		<circle class="st2" cx="742.1" cy="114.1" r="17.8"/>
		<path d="M742.1,132.7c-10.3,0-18.6-8.3-18.6-18.6s8.3-18.6,18.6-18.6c10.3,0,18.6,8.3,18.6,18.6S752.4,132.7,742.1,132.7z
			 M742.1,97c-9.4,0-17.1,7.7-17.1,17.1s7.7,17.1,17.1,17.1c9.4,0,17.1-7.7,17.1-17.1S751.5,97,742.1,97z"/>
	</g>
</g>
<g class="st3">
	<path class="st4" d="M815.7,372.7c-3.2,2.8-6.5,5.5-9.7,8.3c0.4-2.8,0.8-5.5,1.2-8.3C810.1,372.7,812.9,372.7,815.7,372.7z"/>
	<path class="st4" d="M805.8,381.4l1.3-9h9.1L805.8,381.4z M807.5,372.8l-1.1,7.6l8.9-7.6H807.5z"/>
</g>
<g class="st5">
	<path class="st4" d="M694.2,385.1c1.4,0,7.7,0.2,11.5,4.7c4.6,5.5,4,15.6-3.2,23C699.7,403.6,697,394.4,694.2,385.1z"/>
</g>
<g class="st6">
	<path class="st4" d="M745.8,238.2c-8.9,0-17.8,26.7-17.8,35.7c0,0-8.9-8.9-17.8-8.9C710.2,264.9,736.9,238.2,745.8,238.2z"/>
	<path class="st7" d="M728.4,274.7l-0.7-0.7c-0.1-0.1-8.9-8.8-17.6-8.8h-0.9l0.7-0.7c1.1-1.1,26.1-26,35.5-26.8c0.1,0,0.3,0,0.4,0
		v0.8c0,0,0,0,0,0c-8.6,0-17.4,26.2-17.4,35.3V274.7z M711.1,264.5c7.4,0.5,14.4,6.4,16.6,8.4c0.4-7.5,6-26.1,13.1-32.7
		C730.8,245.4,714.5,261.2,711.1,264.5z"/>
</g>
</svg>
