<?xml version="1.0" encoding="utf-8"?>
<!-- Generator: Adobe Illustrator 27.5.0, SVG Export Plug-In . SVG Version: 6.00 Build 0)  -->
<svg version="1.1" id="Layer_1" xmlns="http://www.w3.org/2000/svg" xmlns:xlink="http://www.w3.org/1999/xlink" x="0px" y="0px"
	 viewBox="0 0 600.5 601.4" style="enable-background:new 0 0 600.5 601.4;" xml:space="preserve">
<style type="text/css">
	.st0{fill:#D92F27;}
	.st1{fill:#FCED1E;stroke:#000000;stroke-miterlimit:10;}
	.st2{fill:#D92F27;stroke:#000000;stroke-miterlimit:10;}
	.st3{fill:#FCED1E;}
	.st4{opacity:0.56;}
	.st5{fill:#FFFFFF;}
	.st6{opacity:0.55;}
	.st7{opacity:0.74;}
	.st8{fill:#F9F9F9;}
</style>
<circle class="st0" cx="300.4" cy="300.3" r="296.1"/>
<path class="st1" d="M543.7,352.3c1.9,1,1.9,0.6,0.1,17.9c-0.9,8.9-0.6,8.6-7.8,8.6c-4.9,0-6.9,0.4-8.6,1.9c-3.9,3.5-3,6.3,5.7,17.9
	c5.5,7.4,7.1,11.4,6.6,16.9c-0.7,8.6-8.7,14.9-21.5,17.2c-10.3,1.8-11.2,1.4-13.5-5.8c-1.1-3.5-1.8-6.5-1.5-6.7
	c0.2-0.3,3.4-1,6.9-1.5c6.7-1.1,9.1-2.7,9.1-6.4c0-1-4.2-6.2-9.4-11.6c-11.9-12.3-13.2-14.7-13.2-23.8c0-8.2,2.2-13.5,8-18.6
	c4.5-3.9,9.3-6,16-7C526.7,350.2,541.1,350.9,543.7,352.3z"/>
<path class="st1" d="M487.6,344.5l-0.4,14c-0.2,7.6-0.8,16-1.5,18.6c-1,4.4-1.3,4.6-4.8,4.8c-2,0.1-4.1-0.4-4.7-1
	c-1.1-1.4-3.5-34.5-2.5-36c0.3-0.6,3.6-0.9,7.2-0.7L487.6,344.5z"/>
<path class="st1" d="M434.8,347c2.8-0.8,22.1-1.2,22.1-0.5c0,2.2-11.8,31.5-20.1,50.2c-3.7,8.1-4.1,9.9-5,22.6
	c-0.6,8.2-1.6,14.3-2.3,15c-1.5,1.5-19.7,3.3-20.5,2c-0.3-0.5-0.9-7.3-1.3-15.2c-1-16.5-2.1-19.8-16.8-49.4
	c-4.9-9.9-10.5-22.5-10.1-22.7c1.3-0.5,19.7-2.7,24-2.8l5.7-0.1l2.2,7.2c4.7,16.6,8.2,27,9.1,27s3.7-8.9,8.7-26.2
	C431.9,348.9,432.8,347.6,434.8,347z"/>
<path class="st1" d="M366.6,361.1c3.2,6.9,3.6,20,1,28.9c-3.8,12.4-11,19.1-25.4,23.7l-6.8,2.2l-0.4,8.9c-0.2,4.8-0.8,9.2-1.4,9.8
	c-1.3,1.3-19.4,3.5-20.5,2.4c-1.5-1.6-4.1-91.1-2.7-92.5c2.1-2.1,21.6-2.9,30.5-1.3C352.8,345.3,362.3,352.1,366.6,361.1z
	 M346.6,391.3c3.8-9.5,0.5-17-7.5-17.1c-1.3,0-1.7,1.6-2.3,7.7c-0.9,11.5-0.8,17.4,0.5,17.4C340.1,399.4,345.1,395,346.6,391.3z"/>
<path class="st2" d="M339.1,374.2c8,0.1,11.4,7.6,7.5,17.1c-1.5,3.7-6.5,8-9.4,8c-1.3,0-1.4-5.9-0.5-17.4
	C337.4,375.8,337.8,374.2,339.1,374.2z"/>
<path class="st1" d="M291.1,345.1c3.4,0.9,3.6,1.2,3.2,4.2c-0.6,4.8-2.4,22.5-2.4,24.2c0,1-1.9,1.5-7.9,1.7c-6,0.3-8.5,0.9-10.1,2.3
	c-4.1,3.7-2.4,9.8,5.7,19.7c5.3,6.5,9.3,14.4,9.3,18.6c0,3.9-3.1,10.5-6.1,13.3c-5.9,5.4-20.5,10-29.2,9.2c-3.2-0.3-3.4-0.6-5.6-7.2
	c-1.3-3.8-2-7.3-1.6-7.7c0.5-0.4,3.7-1.2,7.2-1.8c8.1-1.3,11.2-3.2,11.2-7.1c0-2.5-1.8-4.9-10.9-13.9c-6-5.9-11.7-12.5-12.6-14.5
	c-3.1-6.6-3.8-13.2-2.1-19.6c3.1-12.1,10.7-18.8,24.9-22C270.7,343,284.3,343.3,291.1,345.1z"/>
<path class="st1" d="M221.8,352.8l-0.7,11.5c-0.3,6.3-0.9,24.2-1.2,39.8c-0.7,27.8-0.7,28.4-2.8,28.9c-3.4,0.8-18.9,2.8-19.2,2.4
	c-0.4-0.4-2.5-62-2.5-73.6v-8.6l3,1.1c1.7,0.5,6.5,0.8,10.9,0.5c4.2-0.2,8.9-0.8,10.2-1.2L221.8,352.8z"/>
<path class="st1" d="M215.3,322.9c6.1,3.7,7.9,12.3,3.9,18.2c-9.2,13.6-29.4,1.3-22.3-13.6C200,321.1,208.6,318.9,215.3,322.9z"/>
<path class="st1" d="M159,343.5c18.1,4.3,26.8,15,26.7,33.2c0,10.1-3,17.2-10.4,24.9c-2.8,3-5.1,5.7-5.1,6.1c0,0.4,3,4.5,6.6,9.2
	l6.5,8.6l-2.5,3.2c-1.4,1.9-3.9,4.4-5.7,5.7l-3.1,2.3l-11.3-11.2c-6.1-6.1-11.8-11.2-12.5-11.2c-0.8,0-1.2,2.1-1.3,6.7
	c-0.1,8.8-0.7,12.7-2.2,13.6c-0.7,0.4-3.7,1-6.7,1.3s-7.1,0.8-9.3,1c-3.5,0.5-3.6,0.4-4.2-3.3c-0.7-4.9-2.9-83.3-2.5-87.2
	c0.3-2.4,1-3.1,3.4-3.6C131.5,341.6,152.5,342,159,343.5z M158.9,393.7c4.1-4.8,4.6-11.9,1-15.2c-2.7-2.5-9.3-4-10.4-2.4
	c-0.9,1.6-1.9,19.6-1.2,21.6C149.4,400.2,155.1,398,158.9,393.7z"/>
<path class="st2" d="M159.9,378.5c3.6,3.3,3.1,10.4-1,15.2c-3.8,4.2-9.6,6.4-10.6,4c-0.7-2,0.3-20,1.2-21.6
	C150.7,374.5,157.2,376,159.9,378.5z"/>
<path class="st1" d="M103.5,343.6c0.6,1.5-1.2,22.5-2.3,27.2c-0.4,1.7-1.7,2.3-7.6,3.2c-12.4,1.9-18.9,9.4-18.9,21.6
	c0,13.9,7.3,22.3,21.3,24.2l4.7,0.7l-0.6,3.7c-1.2,7.4-2.8,10.8-5.5,11.1c-3.8,0.5-16.4-2.4-22.2-5.1C46.2,418.2,39,378.5,59,356.3
	c4.7-5.2,14-10.8,21.5-12.9c2.5-0.7,8.7-1.3,13.5-1.3C101.3,342,103,342.3,103.5,343.6z"/>
<g>
	<g>
		<path class="st3" d="M213.6,285.9c33.6-13.4,140.3-13.6,168.7-0.4c0.3,0.1,0.5,0.3,0.8,0.4c0,0,16.9-50.8,44.1-78
			c0,0-67.8,81.4-47.5-33.9c0,0-54.2,115.2-81.4-20.3c0,0-20.3,135.6-81.4,20.3c0,0,20.3,108.5-47.5,33.9L213.6,285.9z"/>
		<path d="M383.4,286.8l-0.6-0.3c-0.2-0.1-0.5-0.2-0.8-0.4c-28.2-13.1-135.1-12.9-168.2,0.4l-0.5,0.2l-0.3-0.4l-46.6-82.5l3.5,3.9
			c18.7,20.6,32.3,29,40.4,25c15.3-7.6,6.1-57.9,6-58.4l-0.7-3.8l1.8,3.4c17.3,32.7,32.9,48.2,46.4,45.9c24.3-4.1,33.8-65.4,33.9-66
			l0.5-3.3l0.7,3.3c8.3,41.6,20,63.7,34.6,65.4c22.8,2.8,45.4-44.8,45.6-45.2l1.9-4l-0.8,4.3c-6.3,35.7-4.8,56,4.4,60.2
			c9.9,4.6,26.7-10.6,35.8-20c2-2.4,4.1-4.7,6.3-6.9l0.9,0.8c-0.3,0.4-2.8,3.4-6.6,7.2c-22.9,27.7-37.2,70.1-37.4,70.5L383.4,286.8z
			 M172.5,212l41.4,73.2c33.8-13.1,140.4-13.3,168.7-0.2c0.1,0,0.1,0.1,0.2,0.1c1.7-5,13.6-38,32.1-63.5
			c-9.5,8.7-22.2,17.8-30.7,13.9c-9.4-4.4-11.3-23.7-5.7-57.6c-5.6,10.9-23.7,42.5-42.9,42.5c-0.7,0-1.4,0-2.1-0.1
			c-14.8-1.8-26.6-23.1-35-63.3c-2.3,12.9-12.1,60.1-34.3,63.9c-13.5,2.3-29-12.3-45.9-43.3c1.9,11.9,6.6,49.3-7.3,56.1
			C202.8,237.7,189.9,230.4,172.5,212z"/>
	</g>
	<g>
		<circle class="st3" cx="298.3" cy="126.6" r="20.3"/>
		<path d="M298.3,147.5c-11.5,0-20.9-9.4-20.9-20.9s9.4-20.9,20.9-20.9c11.5,0,20.9,9.4,20.9,20.9S309.8,147.5,298.3,147.5z
			 M298.3,106.9c-10.9,0-19.8,8.9-19.8,19.8s8.9,19.8,19.8,19.8c10.9,0,19.8-8.9,19.8-19.8S309.2,106.9,298.3,106.9z"/>
	</g>
	<g>
		<circle class="st3" cx="433.9" cy="201.2" r="6.8"/>
		<path d="M433.9,208.6c-4.1,0-7.4-3.3-7.4-7.4c0-4.1,3.3-7.4,7.4-7.4c4.1,0,7.4,3.3,7.4,7.4C441.3,205.2,438,208.6,433.9,208.6z
			 M433.9,195c-3.4,0-6.2,2.8-6.2,6.2c0,3.4,2.8,6.2,6.2,6.2s6.2-2.8,6.2-6.2C440.1,197.8,437.3,195,433.9,195z"/>
	</g>
	<g>
		<circle class="st3" cx="162.7" cy="194.4" r="6.8"/>
		<path d="M162.7,201.8c-4.1,0-7.4-3.3-7.4-7.4s3.3-7.4,7.4-7.4c4.1,0,7.4,3.3,7.4,7.4S166.8,201.8,162.7,201.8z M162.7,188.2
			c-3.4,0-6.2,2.8-6.2,6.2s2.8,6.2,6.2,6.2c3.4,0,6.2-2.8,6.2-6.2S166.1,188.2,162.7,188.2z"/>
	</g>
	<g>
		<circle class="st3" cx="210.2" cy="153.7" r="13.6"/>
		<path d="M210.2,167.9c-7.8,0-14.1-6.3-14.1-14.1s6.3-14.1,14.1-14.1s14.1,6.3,14.1,14.1S218,167.9,210.2,167.9z M210.2,140.8
			c-7.2,0-13,5.8-13,13c0,7.2,5.8,13,13,13c7.2,0,13-5.8,13-13C223.2,146.6,217.3,140.8,210.2,140.8z"/>
	</g>
	<g>
		<circle class="st3" cx="386.4" cy="153.7" r="13.6"/>
		<path d="M386.4,167.9c-7.8,0-14.1-6.3-14.1-14.1s6.3-14.1,14.1-14.1s14.1,6.3,14.1,14.1S394.2,167.9,386.4,167.9z M386.4,140.8
			c-7.2,0-13,5.8-13,13c0,7.2,5.8,13,13,13s13-5.8,13-13C399.4,146.6,393.6,140.8,386.4,140.8z"/>
	</g>
</g>
<g class="st4">
	<path class="st5" d="M442.4,350.4c-2.5,2.1-4.9,4.2-7.4,6.3c0.3-2.1,0.6-4.2,0.9-6.3C438.1,350.4,440.3,350.4,442.4,350.4z"/>
	<path class="st5" d="M434.8,357.1l1-6.8h6.9L434.8,357.1z M436.1,350.6l-0.9,5.8l6.8-5.8H436.1z"/>
</g>
<g class="st6">
	<path class="st5" d="M350,359.9c1.1,0,5.8,0.1,8.7,3.6c3.5,4.2,3,11.9-2.4,17.5C354.2,373.9,352.1,366.9,350,359.9z"/>
</g>
<g class="st7">
	<path class="st5" d="M389.3,248.1c-6.8,0-13.6,20.3-13.6,27.1c0,0-6.8-6.8-13.6-6.8C362.1,268.4,382.5,248.1,389.3,248.1z"/>
	<path class="st8" d="M376,275.9l-0.5-0.5c-0.1-0.1-6.8-6.7-13.4-6.7h-0.7l0.5-0.5c0.8-0.8,19.9-19.8,27-20.4c0.1,0,0.2,0,0.3,0v0.6
		c0,0,0,0,0,0c-6.5,0-13.3,19.9-13.3,26.8V275.9z M362.8,268.2c5.6,0.4,11,4.9,12.6,6.4c0.3-5.7,4.6-19.8,10-24.9
		C377.9,253.6,365.4,265.6,362.8,268.2z"/>
</g>
</svg>
