<?xml version="1.0" encoding="utf-8"?>
<!-- Generator: Adobe Illustrator 27.5.0, SVG Export Plug-In . SVG Version: 6.00 Build 0)  -->
<svg version="1.1" id="Layer_1" xmlns="http://www.w3.org/2000/svg" xmlns:xlink="http://www.w3.org/1999/xlink" x="0px" y="0px"
	 viewBox="0 0 179.8 179.4" style="enable-background:new 0 0 179.8 179.4;" xml:space="preserve">
<style type="text/css">
	.st0{fill:#F4BBA5;}
	.st1{fill:#E46773;}
</style>
<circle class="st0" cx="90.3" cy="90.2" r="89.8"/>
<g>
	<g>
		<path class="st1" d="M41.9,48.5c0.4-3.8,7.3-5.1,10.8-5.6c-0.3-0.3-0.4-0.8-0.1-1.1c0.3-0.2,0.5-0.5,0.8-0.7
			c0.1-0.1,0.3-0.2,0.4-0.2c0.6,0,1.5,0.7,1.3,1.2c0,0.1-0.1,0.3-0.1,0.4c1.7-0.2,3.3-0.3,5-0.4c2.4-0.1,4.8-0.1,7.1,0
			c0.6,0,2,1,1.2,1.6c-0.5,0.3-1,0.6-1.4,1c-0.1,0.1-0.3,0.1-0.4,0.1c-0.5,0-1.2-0.8-1.3-0.9c-0.6-0.4-3.3,0-4.9,0.1
			c-1.9,0.1-3.8,0.2-5.7,0.5c-0.2,0.7-0.3,1.4-0.5,2.1c-0.9,4-1.7,8-2.6,12c0.4-0.1,0.8-0.1,1.2-0.2c1-0.2,2.3-0.4,3.6-0.5
			c1.4-0.1,2.7,0.1,3.7,0.7c0.8,0.5,0.7,1.5,0,1.5c-0.2,0-0.4,0-0.6-0.2c-0.6-0.4-1.8-0.3-2.5-0.2c-1.9,0.1-3.9,0.4-5.8,0.8
			c-0.6,2.6-1.4,5.5-1.6,7.9c-0.2,2,0,6.6-1,8.6c-0.3,0.5-0.7,0.8-1.2,0.8c-0.5,0-1-0.3-1.3-0.9c-0.2-0.5,0-1,0.1-1.5
			c0.5-2.6,1-5.2,1.6-7.8c-0.1-1.4-0.2-2.9-0.4-4.3c-0.1-0.6-0.2-1.2-0.3-1.8c-0.5,0.2-1,0.4-1.5,0.6c-0.1,0-0.1,0.1-0.2,0.1
			c-0.9,0.1-1.9-1.3-1-1.7c0.7-0.3,1.5-0.6,2.3-0.8c-0.6-2-1.3-4.1-2.3-6C43.3,52.2,41.7,50.5,41.9,48.5z M43.8,50
			c0.2,0.8,0.9,1.6,1.3,2.3c1.3,2.2,2.3,4.5,3,6.9c0.4-0.1,0.9-0.2,1.3-0.3c0.2-0.9,0.4-1.8,0.6-2.7c1-4.6,1.4-6.9,2.4-11.5
			c-1.3,0.2-2.5,0.5-3.8,0.9C46.7,46.3,43.2,47.6,43.8,50z M46.5,76.2C46.5,76.2,46.5,76.2,46.5,76.2C46.5,76.2,46.5,76.2,46.5,76.2
			z M49,61c-0.1,0-0.3,0.1-0.4,0.1c0.1,0.3,0.2,0.7,0.2,1C48.9,61.7,48.9,61.4,49,61z"/>
		<path class="st1" d="M60.7,64.6c0.9-1.9,2.9-4.1,5.1-4.6c0.2,0,0.4-0.1,0.6-0.1c0.9,0,1.9,0.3,2.5,1c0,0,0,0.1,0.1,0.1
			c0.1-0.1,0.2-0.3,0.3-0.4c0.4-0.5,0.8-1.2,1.4-1.2c0.3,0,0.5,0.1,0.8,0.4c0.7,0.7,0.3,1.6,0,2.4c-0.5,1.6-1.7,4-1.5,5.6
			c0,0.4,0.2,0.8,0.6,0.8c0.9,0,2-0.6,2.5-0.9c1.7-0.9,3.6-2.9,4.8-4.4c0.1-0.2,0.3-0.3,0.5-0.3c0.4,0,0.7,0.5,0.4,1
			c-1.1,2-4.6,6.2-7.6,6.2c-0.7,0-1.3-0.2-1.9-0.6c-1.1-0.8-1.3-2.1-1.1-3.4c-1,1.5-2.8,4-4.9,4.1c-0.2,0-0.3,0-0.5,0
			C59.9,70,59.8,66.6,60.7,64.6z M62.8,68.8c0,0,0.1,0,0.1,0c0.3-0.1,0.7-0.3,0.9-0.4c1.8-1.2,2.9-3.1,3.9-4.9c0,0,0-0.1,0-0.2
			c0-0.4,0.2-1.3-0.1-1.5c-0.1,0-0.2-0.1-0.3-0.1c-0.4,0-0.9,0.2-1.2,0.3c-2,0.9-4.2,3.6-4.2,5.6C62,68.2,62.1,68.8,62.8,68.8z"/>
		<path class="st1" d="M77.5,70.7c-0.6,0-1.4-0.9-1.2-1.5c0.9-3.1,1.7-6.2,2.6-9.3c0.1-0.2,0.2-0.3,0.4-0.3c0.6,0,1.5,0.9,1.3,1.5
			c-0.2,0.7-0.4,1.5-0.6,2.3c0.8-1.1,3-4.3,4.6-4.3c0.4,0,0.7,0.1,1.1,0.5c1,0.9,0.8,2.6,0.7,3.9c0.6-0.7,1.7-1.6,2.7-1.6
			c1.1,0,1.9,1,2.1,2.3c0.1,0.9,0.1,1.9,0.6,2.7c0.3,0.5,0.8,0.7,1.4,0.7c2.4,0,5.3-2.9,6.6-4.4c0.1-0.2,0.3-0.2,0.4-0.2
			c0.3,0,0.3,0.7,0,1.3c-1.1,1.9-4.2,5-6.9,5c-2.6,0-3.5-2.8-3.8-4.8c0-0.2-0.1-0.4-0.1-0.6c-1.7,0.9-2.8,3-3.6,4.6
			c-0.1,0.2-0.3,0.3-0.5,0.3c-0.6,0-1.4-0.8-1.3-1.3c0.3-1.5,0.5-3.1,0.6-4.6c0-0.5,0.1-0.9,0.1-1.4c0,0,0-0.1,0-0.1
			c-0.2,0.2-0.4,0.3-0.5,0.4c-2.5,2.5-4.3,5.7-6,8.7C77.9,70.6,77.7,70.7,77.5,70.7z M85.2,60.8C85.2,60.8,85.2,60.8,85.2,60.8
			C85.2,60.9,85.2,60.9,85.2,60.8z"/>
		<path class="st1" d="M101.5,59.8c0.7,0,1.5,0.9,1.2,1.5c-0.9,1.7-1.7,3.6-1.9,5.5c0,0.3-0.3,1.5,0.1,1.8c0.1,0.1,0.2,0.1,0.4,0.1
			c0.6,0,1.5-0.3,1.9-0.4c2.3-0.9,4.9-3.1,6.4-5c0.1-0.2,0.2-0.2,0.3-0.2c0.3,0,0.3,0.8,0,1.3c-1.1,2-4.9,6.1-7.9,6
			c-0.8,0-1.5-0.3-2.2-0.9c-1.5-1.4-0.9-3.8-0.4-5.4c0.4-1.3,1-2.7,1.6-4C101.2,59.9,101.3,59.8,101.5,59.8z M102.9,56.2
			c0.3,0,0.6,0.1,0.7,0.2c0.4,0.3,0.7,0.8,0.5,1.2c-0.1,0.4-0.3,0.8-0.5,1.1c-0.1,0.2-0.3,0.3-0.5,0.3c-0.3,0-0.6-0.1-0.7-0.2
			c-0.4-0.3-0.7-0.8-0.5-1.2c0.1-0.4,0.3-0.7,0.5-1.1C102.5,56.2,102.7,56.2,102.9,56.2z"/>
		<path class="st1" d="M119.9,63.3c0.3,0,0.5,0.8,0.2,1.3c-1.1,2-5.2,6.9-8.4,6.8c-1,0-1.9-0.5-2.7-1.7c-1.1-1.8-0.5-4.3,0.1-6.1
			c1.4-4.7,3.9-9,5.8-13.6c0.1-0.2,0.3-0.3,0.5-0.3c0.6,0,1.5,0.9,1.2,1.5c-0.8,1.9-1.8,3.7-2.6,5.5c-1.1,2.3-2.1,4.6-2.8,7
			c-0.5,1.6-1.3,3.8-0.7,5.5c0.1,0.2,0.2,0.3,0.2,0.3c0.3,0.1,0.6,0.1,0.9,0.1c3.1-0.1,6.5-3.8,8-6
			C119.6,63.4,119.8,63.3,119.9,63.3z"/>
		<path class="st1" d="M116.6,75.6c3-3.4,7-6.1,11.1-8.2c0.2-0.8,0.4-1.7,0.5-2.6c-0.6,0.7-1.2,1.3-1.9,2c-1.2,1.2-3.1,3-4.9,2.9
			c-0.6,0-1.2-0.2-1.7-0.7c-2.6-2.1,0.3-6.3,1.5-8.4c0.1-0.2,0.3-0.3,0.5-0.3c0.7,0,1.5,0.9,1.2,1.5c-0.6,1.1-1.3,2.2-1.8,3.3
			c-0.2,0.5-1,2-0.6,2.6c0,0,0.3,0.1,0.5,0.1c0,0,0.1,0,0.1,0c1.1-0.1,2.2-1.1,2.9-1.8c1.2-1.1,2.2-2.4,3.4-3.5
			c0.4-0.4,0.9-0.8,1.4-0.7c0.3,0,0.6,0.2,0.9,0.5c0.9,1,0.4,2.7,0.2,3.8c0,0.1,0,0.1,0,0.2c1.9-0.9,3.9-1.6,6-2.1
			c0.1,0,0.2,0,0.3,0c0.8,0,1.3,1,0.4,1.2c-2.3,0.5-4.7,1.5-7,2.7c-0.4,1.6-0.9,3.1-1.4,4.6c-1.5,4.3-3.9,9.8-8.4,12
			c-0.9,0.4-1.9,0.7-3,0.7c-1.5,0-2.9-0.7-3.4-2.4C112.7,80.3,114.8,77.5,116.6,75.6z M115.2,83.4c0.2,0.2,0.4,0.2,0.7,0.2
			c2.4,0.1,4.3-1.5,5.7-3.2c2.7-3.1,4.4-7.1,5.5-11.1c-3.6,2.2-10.7,7.9-11.9,12.1C115.1,82,114.8,83,115.2,83.4z"/>
		<path class="st1" d="M85.7,85.3c0.1,0,0.1,0,0.2,0c0.2,0,0.4,0.1,0.5,0.1c0.4-0.9,1.2-1.7,2.4-1.8c1.7,0,2.8,1.3,3.1,2.8
			c0.3,1.7-0.3,3.6-1,5.2c0.2,0,0.3,0,0.4,0c2.2,0,4.7-1.1,5.8-2.6c0.1-0.1,0.2-0.2,0.3-0.2c0.3,0,0.2,1-0.2,1.6
			c-1.4,1.8-3.6,2.9-5.8,2.9c-0.5,0-0.9,0-1.4-0.1c-0.9,1.4-2.5,3-4.3,3c-1.1,0-2.1-0.5-2.8-1.5C81.3,91.9,82.2,86.2,85.7,85.3z
			 M84.5,94.3c0.2,0.1,0.3,0.1,0.5,0.1c1.2,0,2.5-1.3,3.2-2.2c-0.5-0.3-0.9-0.8-1.3-1.3c-0.7-1-1.1-2.3-1-3.6c-1,0.7-1.5,2-1.7,3.1
			C84,91.3,83.6,93.7,84.5,94.3z M88.9,91c0.2-0.5,0.4-0.9,0.6-1.3c0.2-0.6,1.1-4.4,0-4.4c-0.2,0-0.5,0.1-0.8,0.4
			C87.3,86.9,87.3,89.9,88.9,91z"/>
		<path class="st1" d="M95.8,93.4c0.1-0.4,0.2-0.8,0.3-1.2c0,0-0.1,0-0.1,0c-0.6-0.3-1.2-1.6-0.3-1.6c0.1,0,0.1,0,0.2,0
			c0.2,0,0.4,0.1,0.6,0.1c1.6-4.9,3.7-9.6,6.1-14.2c0.1-0.2,0.3-0.3,0.5-0.3c0.5,0,1.2,0.7,1.3,1.1c0.2,1.3,0.4,2.6,0.6,3.9
			c0.1,0.4-0.1,0.6-0.5,0.6c-0.5,0-1.2-0.5-1.3-1c0-0.2-0.1-0.4-0.1-0.6c-1.7,3.7-3.4,7.4-4.7,11.2c0.4,0.1,0.8,0.1,1.2,0.1
			c2.3,0,4.6-0.9,6.2-2.5c0.2-0.1,0.3-0.2,0.4-0.2c0.3,0,0.3,0.8-0.2,1.4c-1.5,1.8-3.7,2.9-6,3c1.7,2.2,2.1,5.5,1.1,8.2
			c-0.5,1.3-1.5,2.8-3,2.8c-1.3,0-2.3-0.5-3-1.7C93.9,99.8,95.1,96,95.8,93.4z M96.6,101.2c0,0.4,0.2,0.8,0.3,0.9
			c0,0,0.1,0.1,0.1,0.1c0,0,0.2,0.1,0.3,0.1c1.3,0,1.9-1.1,2.4-2.2c0.9-2.4,0.6-5.7-1.7-7.2C97.2,95.5,96.2,98.5,96.6,101.2z"/>
		<path class="st1" d="M47.2,114.4c1.3-3,3.4-5.4,5.5-7.9c-1.9-1.5-2.8-3.7-2.5-6.2c0.4-2.9,2.2-5.5,4.9-6.9
			c1.4-0.8,3.3-1.4,5.1-1.5c1.2-0.1,2.4,0.1,3.4,0.7c2.1,1.2,2.7,3.6,2.1,5.7c-0.7,2.7-2.9,4.8-5.5,5.8c-0.1,0-0.2,0-0.2,0.1
			c-0.8,0-1.8-1.3-0.9-1.7c2.3-0.9,4.2-2.7,4.9-5.1c0.3-1.3,0.3-3.1-1.3-3.6c-0.5-0.1-1.1-0.2-1.8-0.2c-1.9,0.1-4,0.9-5.4,1.8
			c-2,1.4-3.3,3.5-3.5,5.8c-0.1,1.3,0,2.5,0.9,3.4c0.3,0.3,0.6,0.6,0.9,0.8c0.1,0.1,0.4,0.3,0.4,0.3c0,0,0,0-0.1-0.1
			c0.5,0.3,1.1,0.9,0.6,1.5c-2.3,2.7-4.7,5.3-6,8.6c-1.1,2.8-2.1,7.8,0.8,9.9c0.9,0.7,2.1,0.9,3.2,0.8c1.9-0.1,3.8-1,5.2-1.9
			c3.3-2.1,6-5.6,7.6-9.2c0.1-0.3,0.2-0.4,0.4-0.4c0.3,0,0.7,0.7,0.4,1.3c-1.9,5.4-6.7,11.4-12.9,11.7c-2.3,0.1-4.6-0.6-6.1-2.6
			C45.1,122.4,45.7,117.8,47.2,114.4z"/>
		<path class="st1" d="M65.5,115.8c0.8-1.8,2.7-4.1,4.8-4.5c0.2,0,0.4-0.1,0.5-0.1c0.9,0,1.8,0.3,2.3,1c0,0,0,0.1,0.1,0.1
			c0.1-0.1,0.2-0.3,0.3-0.4c0.3-0.5,0.8-1.2,1.3-1.2c0.2,0,0.5,0.1,0.8,0.4c0.7,0.7,0.3,1.6,0,2.4c-0.5,1.6-1.6,4-1.4,5.6
			c0,0.4,0.2,0.8,0.6,0.8c0.8,0,1.9-0.6,2.3-0.9c1.6-0.9,3.4-2.9,4.5-4.4c0.1-0.2,0.3-0.3,0.4-0.3c0.4,0,0.7,0.5,0.4,1
			c-1,2-4.3,6.1-7.1,6.2c-0.6,0-1.2-0.2-1.8-0.6c-1-0.8-1.2-2.1-1-3.5c-1,1.5-2.6,4-4.6,4.1c-0.2,0-0.3,0-0.5,0
			C64.7,121.1,64.6,117.8,65.5,115.8z M67.4,119.9c0,0,0.1,0,0.1,0c0.3-0.1,0.6-0.3,0.9-0.4c1.6-1.2,2.7-3,3.7-4.9c0,0,0-0.1,0-0.2
			c0-0.4,0.2-1.3-0.1-1.5c-0.1,0-0.2-0.1-0.3-0.1c-0.3,0-0.9,0.2-1.1,0.3c-1.8,0.9-3.9,3.6-3.9,5.6
			C66.6,119.3,66.7,119.9,67.4,119.9z"/>
		<path class="st1" d="M79.1,108.1c-0.8,0-1.7-1.3-0.8-1.7c1.2-0.6,5.2-0.8,6.3-1.6c0.7-0.5,1.3-3.1,2.1-4.6
			c0.1-0.2,0.3-0.3,0.5-0.3c0.6,0,1.5,0.9,1.2,1.5c-0.5,1-1,2.1-1.5,3.1c2.4-0.3,4.9-0.4,6.9-0.4c1.6,0,2.9,0.1,3.6,0.3
			c0.8,0.2,1.4,1.3,0.6,1.3c-0.1,0-0.2,0-0.3,0c-0.5-0.1-1.3-0.2-2.3-0.2c-2.4,0-6.1,0.3-9.3,0.9c-1.2,2.9-2.1,5.9-2.6,8.8
			c-0.2,1.2-0.5,2.5-0.3,3.7c0.1,0.6,0.3,0.9,0.7,0.9c0.1,0,0.3,0,0.5-0.1c2.1-0.4,4.6-3.4,5.7-5.1c0.2-0.2,0.3-0.3,0.4-0.3
			c0.3,0,0.5,0.7,0.2,1.3c-0.8,1.7-4,6-6.6,6c-0.9,0-1.7-0.5-2.3-1.8c-1-2-0.2-4.9,0.3-7c0.5-2,1.1-4.1,1.8-6
			c-1.9,0.4-3.6,0.8-4.4,1.3C79.3,108.1,79.2,108.1,79.1,108.1z"/>
		<path class="st1" d="M89.7,115.5c0.7-2.2,2.9-4.6,5.4-4.6c1.7,0,3.1,1.5,2.5,3.3c-0.6,1.7-2.7,3.3-4.6,3.3c-0.6,0-1.2-0.2-1.8-0.5
			c-0.1,0.5-0.2,1.1-0.1,1.6c0.1,1.3,1.2,1.6,2.3,1.6c3.5,0,6.9-2.4,8.4-5.5c0.1-0.2,0.2-0.3,0.3-0.3c0.2,0,0.4,0.8,0.2,1.4
			c-1,3-4.4,6.1-8.3,6.1c-1.5,0-3-0.6-3.9-1.9C89.2,118.6,89.3,116.9,89.7,115.5z M91.9,115.5c0.2,0.1,0.3,0.2,0.6,0.2
			c1.3,0,3.9-2.8,3.6-3.1c0,0-0.2,0-0.3,0C94.2,112.5,92.5,114.2,91.9,115.5C91.8,115.5,91.9,115.5,91.9,115.5z"/>
		<path class="st1" d="M101.6,122.2c-0.6,0-1.3-0.8-1.2-1.3c0.8-3.8,1.7-7.5,2.6-11.2c0.1-0.3,0.3-0.5,0.5-0.5
			c0.5,0,1.3,0.7,1.2,1.3c-0.3,1.3-0.6,2.7-0.9,4c0.9-1.2,2.5-2.9,4.1-2.9c1.9,0,2.7,2.4,2.9,4c0.1,0.5-0.2,0.7-0.5,0.7
			c-0.5,0-1.2-0.5-1.2-1.1c0-0.3-0.3-1.8-0.7-1.8c-0.1,0-0.3,0.1-0.5,0.1c-2.4,0.9-4.9,6.1-5.8,8.4
			C101.9,122.1,101.7,122.2,101.6,122.2z"/>
		<path class="st1" d="M114.3,111.3c0.6,0,1.4,0.9,1.1,1.5c-0.9,1.7-1.6,3.6-1.9,5.5c-0.1,0.3-0.3,1.5,0,1.8
			c0.1,0.1,0.2,0.1,0.4,0.1c0.5,0,1.4-0.3,1.8-0.4c2.2-0.8,4.6-3.1,6.1-4.9c0.1-0.2,0.2-0.2,0.3-0.2c0.3,0,0.3,0.8,0,1.3
			c-1,2-4.7,6-7.5,5.9c-0.7,0-1.4-0.3-2-1c-1.3-1.5-0.8-3.8-0.3-5.5c0.4-1.3,1-2.7,1.6-4C114,111.4,114.2,111.3,114.3,111.3z
			 M115.7,107.7c0.2,0,0.5,0.1,0.7,0.2c0.4,0.3,0.6,0.8,0.5,1.3c-0.1,0.4-0.3,0.8-0.4,1.1c-0.1,0.2-0.3,0.3-0.4,0.3
			c-0.3,0-0.5-0.1-0.7-0.3c-0.4-0.3-0.6-0.8-0.5-1.3c0.1-0.3,0.3-0.7,0.5-1.1C115.3,107.7,115.5,107.7,115.7,107.7z"/>
		<path class="st1" d="M121,115.9c0.7-2.2,3.1-4.5,5.6-4.4c1.7,0.1,3.1,1.6,2.4,3.4c-0.6,1.6-2.8,3.1-4.7,3.1
			c-0.6,0-1.2-0.2-1.7-0.6c-0.1,0.5-0.2,1.1-0.2,1.6c0.1,1.3,1.1,1.7,2.2,1.7c3.5,0.1,7-2.1,8.6-5.1c0.1-0.2,0.2-0.3,0.3-0.3
			c0.2,0,0.3,0.8,0.1,1.4c-1.1,3-4.6,6-8.5,5.8c-1.5-0.1-3-0.7-3.8-2.1C120.4,119,120.5,117.3,121,115.9z M123.1,116
			c0.1,0.1,0.3,0.2,0.6,0.2c1.3,0,4-2.6,3.7-3c0,0-0.2,0-0.3,0C125.5,113.1,123.8,114.7,123.1,116C123.1,116,123.1,116,123.1,116z"
			/>
		<path class="st1" d="M128.4,125.5c0.2-2.8,3-5.1,5.4-6.5c-0.6-2.5-1.7-6,0.2-8.1c0.7-0.8,1.5-1.1,2.3-1c1.8,0.1,3.5,2.1,3.1,4.1
			c-0.1,0.3-0.2,0.5-0.5,0.4c-0.5,0-1.3-0.8-1.2-1.3c0.1-0.9-0.2-1.4-0.9-1.4c-0.2,0-0.5,0.1-0.8,0.2c-1.1,0.5-1.4,1.7-1.4,2.8
			c0,1.2,0.2,2.4,0.5,3.6c2.5-1.2,5.3-2,8.1-2.5c0.1,0,0.1,0,0.2,0c0.8,0,1.2,1,0.3,1.2c-2.3,0.5-5.4,1.5-8.1,3.1
			c0.3,1.6,0.5,3.2,0.4,4.8c-0.1,2.5-1.7,4.9-4.3,4.7c-0.4,0-0.9-0.1-1.4-0.3C128.8,128.7,128.2,127,128.4,125.5z M131.1,127.8
			c0.1,0,0.2,0,0.2,0c3.4-0.2,3.3-4.1,2.8-6.9c-1.7,1.2-3.1,2.5-3.8,4.1C129.9,126,129.6,127.7,131.1,127.8z"/>
	</g>
</g>
</svg>
