<?xml version="1.0" encoding="utf-8"?>
<!-- Generator: Adobe Illustrator 27.7.0, SVG Export Plug-In . SVG Version: 6.00 Build 0)  -->
<svg version="1.1" id="Layer_1" xmlns="http://www.w3.org/2000/svg" xmlns:xlink="http://www.w3.org/1999/xlink" x="0px" y="0px"
	 viewBox="0 0 514.1 179.4" style="enable-background:new 0 0 514.1 179.4;" xml:space="preserve">
<style type="text/css">
	.st0{fill:#F4BBA5;}
	.st1{fill:#F4D6CE;}
	.st2{fill:#E23750;}
	.st3{fill:#FFFFFF;}
</style>
<g>
	<path class="st0" d="M463.3,146.5c-128-45.3-267.7-45.3-395.7,0c-6.4,2.3-13.5-0.8-15.9-7C44.9,121.4,38,103.2,31.1,85
		c-2.4-6.2,1.7-13.5,9-16.1c145.8-51.6,304.9-51.6,450.7,0c7.3,2.6,11.4,9.9,9,16.1c-6.9,18.2-13.8,36.4-20.6,54.6
		C476.8,145.7,469.7,148.8,463.3,146.5z"/>
</g>
<g>
	<path class="st1" d="M463.8,148.3c-126.8-46.6-266.5-48-395.2-2.8c-13.2,11.4-0.8-0.4,31.4-16.7c31.8-16.6,83.3-37.6,140.4-50.6
		c56.9-13.5,119.4-19,168.2-16.6c48.7,1.6,83.6,11.2,82.7,9.1c7.4,2.6,11.4,9.9,9,16.1c-6.9,18.2-13.8,36.4-20.6,54.6
		C477.3,147.5,470.2,150.6,463.8,148.3z"/>
</g>
<g>
	<g>
		<path class="st2" d="M57.8,89.1c-1.4-4.9,6.7-9.6,11-11.7c-0.6-0.3-1-0.8-0.7-1.3c0.2-0.4,0.5-0.8,0.7-1.2
			c0.1-0.2,0.3-0.3,0.5-0.4c0.8-0.3,2.2,0.3,2.4,1c0,0.2,0,0.4,0.1,0.5c2.1-0.9,4.2-1.8,6.4-2.5c3.1-1.1,6.2-2,9.3-2.8
			c0.8-0.2,3.1,0.6,2.3,1.6c-0.5,0.6-1,1.2-1.4,1.8c-0.1,0.2-0.3,0.2-0.5,0.3c-0.7,0.2-1.7-0.1-2.2-0.6c-2.1,0.6-4.3,1.3-6.3,2
			c-2.4,0.8-4.8,1.8-7.2,2.9c0.1,1,0.3,1.9,0.4,2.9c0.8,5.5,1.6,10.9,2.4,16.4c0.5-0.2,1-0.5,1.5-0.7c1.2-0.6,2.8-1.4,4.4-2
			c1.7-0.6,3.5-1,5-0.5c1.2,0.3,1.5,1.7,0.7,2c-0.2,0.1-0.5,0.1-0.9,0c-0.9-0.2-2.4,0.4-3.2,0.7c-2.4,0.9-4.8,2.1-7,3.3
			c0.5,3.6,0.7,7.7,1.5,10.8c0.7,2.6,2.9,8.5,2.5,11.4c-0.1,0.8-0.5,1.3-1.1,1.5c-0.6,0.2-1.3,0.1-1.9-0.6c-0.4-0.5-0.4-1.3-0.5-1.9
			c-0.5-3.6-0.7-7.6-1.6-10.7c-0.4-1.7-1.6-3.6-2.5-5.3c-0.4-0.7-0.8-1.5-1.2-2.2c-0.5,0.4-1.1,0.9-1.6,1.3
			c-0.1,0.1-0.1,0.1-0.3,0.2c-1,0.4-3-0.9-2-1.7c0.8-0.7,1.6-1.3,2.5-2c-1.7-2.4-3.6-4.6-5.8-6.6C61.4,93.1,58.6,91.7,57.8,89.1z
			 M61.1,90.1c0.7,1,1.9,1.7,2.8,2.4c2.7,2.2,5.1,4.8,7,7.6c0.5-0.3,1-0.6,1.5-0.9c-0.2-1.2-0.4-2.5-0.6-3.7
			c-0.9-6.3-1.4-9.4-2.4-15.7c-1.5,0.8-3,1.7-4.4,2.7C62.8,84.2,59.1,87.3,61.1,90.1z M72.8,102c-0.2,0.1-0.3,0.2-0.5,0.3
			c0.3,0.4,0.5,0.8,0.7,1.2C73,103,72.9,102.5,72.8,102z M76.5,122.6C76.5,122.6,76.5,122.6,76.5,122.6
			C76.5,122.6,76.5,122.6,76.5,122.6z"/>
		<path class="st2" d="M89.2,102.1c0.3-2.7,1.9-6.4,4.6-7.8c0.2-0.1,0.5-0.2,0.7-0.3c1.2-0.4,2.5-0.3,3.6,0.4c0,0,0.1,0.1,0.1,0.1
			c0.1-0.2,0.1-0.4,0.2-0.6c0.2-0.8,0.6-1.8,1.3-2c0.3-0.1,0.7-0.1,1.3,0.2c1.2,0.6,1.1,2,1.1,3.1c0,2.2-0.5,5.7,0.3,7.8
			c0.2,0.6,0.6,1,1.1,0.9c1.1-0.3,2.3-1.5,2.8-2.1c1.8-1.8,3.5-5,4.4-7.4c0.1-0.3,0.3-0.5,0.5-0.5c0.5-0.1,1.1,0.4,0.9,1.2
			c-0.6,3-3.5,9.6-7.2,10.8c-0.8,0.3-1.7,0.2-2.7-0.1c-1.7-0.7-2.4-2.3-2.8-4.1c-0.6,2.4-1.9,6.2-4.4,7.1c-0.2,0.1-0.4,0.1-0.6,0.2
			C90.4,109.4,88.8,105.1,89.2,102.1z M93.4,106.7c0.1,0,0.1,0,0.2-0.1c0.4-0.2,0.7-0.6,1-0.9c1.7-2.2,2.4-5,2.9-7.8
			c0-0.1,0-0.1-0.1-0.2c-0.1-0.5-0.3-1.7-0.8-1.9c-0.1,0-0.2,0-0.4,0c-0.5,0.2-1.1,0.7-1.3,0.9c-2.1,1.9-3.8,6.2-2.9,8.9
			C92.2,106.3,92.6,107,93.4,106.7z"/>
		<path class="st2" d="M112.8,104c-0.8,0.2-2.1-0.7-2.1-1.5c-0.1-4.3-0.2-8.7-0.4-13c0-0.3,0.2-0.5,0.4-0.6c0.8-0.2,2.3,0.6,2.3,1.5
			c0,1.1,0.1,2.1,0.1,3.2c0.6-1.8,2.2-6.6,4.3-7.1c0.5-0.1,1-0.1,1.6,0.3c1.7,0.9,2.1,3.1,2.4,4.9c0.5-1.1,1.5-2.6,2.9-3
			c1.4-0.4,2.8,0.7,3.6,2.4c0.5,1.1,0.9,2.4,1.8,3.3c0.6,0.6,1.3,0.6,2,0.5c3.1-0.7,5.8-5.4,7.1-7.8c0.1-0.3,0.3-0.4,0.4-0.4
			c0.4-0.1,0.7,0.9,0.4,1.7c-0.8,2.8-3.8,7.8-7.3,8.7c-3.4,0.8-5.6-2.6-6.6-5.1c-0.1-0.2-0.3-0.5-0.4-0.8c-1.9,1.7-2.5,4.9-3,7.2
			c-0.1,0.3-0.3,0.5-0.5,0.6c-0.7,0.2-2.1-0.6-2.1-1.3c-0.2-2-0.5-4.1-0.9-6.2c-0.2-0.6-0.3-1.2-0.5-1.9c0,0,0-0.1,0-0.1
			c-0.2,0.3-0.4,0.5-0.5,0.7c-2.3,4.1-3.4,8.9-4.4,13.4C113.3,103.8,113.1,103.9,112.8,104z M119,88.5C119,88.5,118.9,88.5,119,88.5
			C119,88.5,119,88.5,119,88.5z"/>
		<path class="st2" d="M140,82.1c0.9-0.2,2.3,0.7,2.2,1.6c-0.6,2.5-0.9,5.3-0.6,7.8c0.1,0.5,0.2,2.1,0.7,2.4c0.1,0.1,0.3,0,0.6,0
			c0.8-0.2,1.9-0.8,2.3-1.1c2.7-1.8,5.3-5.5,6.7-8.3c0.1-0.3,0.2-0.4,0.4-0.4c0.4-0.1,0.7,0.9,0.5,1.8c-0.8,2.9-4.4,9.4-8.4,10.2
			c-1,0.2-2.1,0.1-3.1-0.6c-2.4-1.5-2.5-4.7-2.4-7.1c0.1-1.9,0.3-3.9,0.7-5.8C139.5,82.3,139.7,82.1,140,82.1z M140.5,76.8
			c0.3-0.1,0.8,0,1,0.1c0.7,0.2,1.2,0.9,1.2,1.5c-0.1,0.5-0.1,1.1-0.2,1.7c0,0.3-0.3,0.4-0.5,0.5c-0.4,0.1-0.8,0-1.1-0.1
			c-0.6-0.2-1.2-0.9-1.2-1.5c0.1-0.5,0.1-1.1,0.2-1.6C140,77,140.2,76.9,140.5,76.8z"/>
		<path class="st2" d="M165.7,81.7c0.4-0.1,0.9,0.9,0.7,1.7c-0.9,2.9-4.8,10.5-9.1,11.3c-1.3,0.2-2.7-0.2-4.1-1.6
			c-2.1-2.1-2-5.6-2-8.2c0.2-6.6,2.1-13.1,3.1-19.6c0.1-0.3,0.3-0.5,0.5-0.5c0.8-0.1,2.4,0.8,2.2,1.7c-0.4,2.6-1.1,5.3-1.7,8
			c-0.6,3.3-1.2,6.7-1.4,10c-0.2,2.2-0.5,5.5,0.9,7.5c0.2,0.3,0.4,0.3,0.4,0.3c0.4,0.1,0.8,0,1.2,0c4.1-0.9,7.5-6.7,8.8-10
			C165.4,81.8,165.5,81.7,165.7,81.7z"/>
		<path class="st2" d="M165.1,98.9c3-5.2,7.4-9.8,12.4-13.7c0-1.2,0-2.4,0-3.6c-0.7,1-1.3,2.1-2,3.1c-1.2,1.8-3.2,4.7-5.7,5.1
			c-0.8,0.1-1.6,0-2.5-0.5c-4.1-2.1-1.6-8.5-0.6-11.5c0.1-0.3,0.3-0.5,0.6-0.5c0.9-0.1,2.3,0.9,2.1,1.8c-0.5,1.6-1,3.2-1.3,4.9
			c-0.1,0.7-0.7,3,0,3.6c0,0,0.4,0,0.7,0c0,0,0.1,0,0.1,0c1.4-0.4,2.6-2.1,3.4-3.1c1.3-1.8,2.3-3.7,3.5-5.5c0.5-0.7,1-1.2,1.7-1.3
			c0.4,0,0.9,0.1,1.4,0.4c1.5,1.1,1.4,3.5,1.4,5.1c0,0.1,0,0.2,0,0.3c2.3-1.6,4.8-3.1,7.5-4.2c0.1,0,0.2-0.1,0.4-0.1
			c1.1-0.1,2,1.1,0.8,1.6c-3,1.2-6,3-8.8,5.2c-0.1,2.2-0.3,4.4-0.6,6.5c-0.9,6.1-2.5,14-7.8,18.1c-1.1,0.8-2.3,1.4-3.7,1.6
			c-2,0.3-4-0.3-5-2.4C161.4,106.1,163.4,101.8,165.1,98.9z M165.5,109.7c0.2,0.2,0.6,0.2,1,0.1c3.1-0.5,5.2-3.1,6.6-5.6
			c2.7-4.8,3.8-10.6,4.2-16.1c-4.1,3.8-11.8,13.2-12.3,19C165,107.7,164.9,109.2,165.5,109.7z"/>
	</g>
</g>
<g>
</g>
<g>
	<path class="st2" d="M253.1,68.7c0.1,0,0.1,0,0.2,0c0.2,0,0.4,0.1,0.6,0.2c0.5-1,1.3-1.9,2.5-1.9c1.8,0,3,1.5,3.2,3.2
		c0.3,1.9-0.3,4-1.1,5.8c0.2,0,0.3,0,0.5,0c2.4,0,5-1.2,6.2-2.9c0.1-0.2,0.2-0.2,0.3-0.2c0.3,0,0.3,1.1-0.2,1.8
		c-1.5,2-3.9,3.2-6.2,3.2c-0.5,0-1,0-1.5-0.2c-1,1.6-2.7,3.3-4.7,3.3c-1.2,0-2.3-0.6-3-1.8C248.3,76.1,249.3,69.6,253.1,68.7z
		 M251.7,78.8c0.2,0.1,0.4,0.1,0.6,0.1c1.3,0,2.7-1.4,3.4-2.4c-0.5-0.4-1-0.9-1.3-1.4c-0.8-1.2-1.1-2.6-1-4.1
		c-1,0.8-1.6,2.2-1.9,3.4C251.2,75.4,250.7,78.1,251.7,78.8z M256.5,75.2c0.2-0.5,0.5-1,0.6-1.5c0.3-0.7,1.2-4.9,0-4.9
		c-0.2,0-0.5,0.1-0.8,0.4C254.7,70.6,254.7,73.9,256.5,75.2z"/>
	<path class="st2" d="M263.9,77.8c0.1-0.4,0.2-0.9,0.4-1.3c0,0-0.1,0-0.1,0c-0.7-0.3-1.3-1.8-0.3-1.8c0.1,0,0.1,0,0.2,0
		c0.2,0,0.5,0.1,0.7,0.1c1.7-5.5,3.9-10.8,6.3-16c0.1-0.2,0.3-0.4,0.5-0.4c0.6,0,1.3,0.8,1.3,1.2c0.2,1.4,0.5,2.9,0.7,4.3
		c0.1,0.5-0.1,0.7-0.5,0.7c-0.5,0-1.3-0.6-1.4-1.2c0-0.2-0.1-0.4-0.1-0.7c-1.8,4.1-3.5,8.3-4.9,12.6c0.4,0.1,0.9,0.1,1.3,0.1
		c2.5,0,4.9-1,6.6-2.9c0.2-0.2,0.3-0.2,0.4-0.2c0.4,0,0.4,0.9-0.1,1.5c-1.6,2.1-3.9,3.3-6.4,3.4c1.9,2.5,2.3,6.1,1.2,9.2
		c-0.5,1.4-1.5,3.1-3.2,3.2c-1.4,0-2.5-0.6-3.2-1.8C261.8,85.1,263.1,80.8,263.9,77.8z M264.7,86.6c0,0.4,0.2,0.9,0.3,1
		c0,0,0.1,0.1,0.1,0.1c0,0,0.2,0.1,0.3,0.1c1.4,0,2.1-1.2,2.5-2.4c1-2.7,0.6-6.5-1.8-8.1C265.3,80.2,264.2,83.6,264.7,86.6z"/>
</g>
<g>
	<g>
		<path class="st2" d="M339.3,78c2.6-3.8,6.3-6.6,10.1-9.4c-2.3-2.4-3-5.6-1.8-8.8c1.4-3.9,4.7-6.8,9.2-8.1c2.2-0.7,5.2-1,7.9-0.7
			c1.8,0.2,3.4,0.8,4.7,1.8c2.6,2.1,2.7,5.5,1.3,8.2c-1.8,3.4-5.6,5.6-9.6,6.4c-0.1,0-0.2,0-0.3,0c-1.2-0.2-2.2-2.2-0.9-2.5
			c3.6-0.7,6.9-2.6,8.6-5.6c0.9-1.6,1.4-4.1-0.8-5.1c-0.7-0.3-1.6-0.6-2.5-0.7c-2.8-0.4-6.1,0.2-8.4,1.1c-3.3,1.3-5.8,3.9-6.8,7
			c-0.5,1.7-0.7,3.3,0.3,4.8c0.3,0.5,0.7,0.9,1.1,1.3c0.1,0.1,0.6,0.4,0.5,0.4c0,0,0,0-0.1-0.1c0.6,0.5,1.3,1.5,0.5,2.1
			c-4,3.1-8.2,6-10.9,10.1c-2.3,3.5-4.8,10-1.2,13.4c1.2,1.1,2.7,1.6,4.3,1.8c2.6,0.3,5.6-0.4,7.8-1.3c5.2-2.1,9.9-6.1,13.2-10.4
			c0.2-0.3,0.4-0.4,0.7-0.4c0.5,0.1,0.7,1,0.3,1.8c-4.2,6.7-12.4,13.5-21.2,12.6c-3.3-0.4-6.4-1.8-8-4.8
			C334.5,88.3,336.5,82.2,339.3,78z"/>
		<path class="st2" d="M365,84.1c1.7-2.2,5.1-4.6,8.1-4.8c0.3,0,0.5,0,0.8,0.1c1.2,0.2,2.4,0.9,2.9,2c0,0,0,0.1,0.1,0.1
			c0.2-0.2,0.3-0.3,0.5-0.5c0.6-0.6,1.5-1.3,2.2-1.2c0.3,0.1,0.7,0.3,1,0.7c0.8,1.1-0.1,2.3-0.7,3.2c-1.2,1.9-3.4,4.8-3.7,7
			c-0.1,0.6,0,1.2,0.5,1.3c1.1,0.2,2.8-0.3,3.5-0.5c2.5-0.8,5.6-2.8,7.6-4.5c0.2-0.2,0.5-0.3,0.7-0.3c0.5,0.1,0.8,0.8,0.2,1.4
			c-2,2.3-7.9,6.9-11.8,6.2c-0.9-0.2-1.7-0.6-2.3-1.3c-1.1-1.4-1-3.1-0.4-4.9c-1.8,1.8-4.8,4.6-7.5,4.2c-0.2,0-0.4-0.1-0.7-0.2
			C362.4,91,363.2,86.5,365,84.1z M366.5,90.1c0.1,0,0.1,0,0.2,0c0.4,0,0.9-0.2,1.3-0.4c2.6-1.1,4.6-3.3,6.6-5.6c0-0.1,0-0.1,0-0.2
			c0.2-0.5,0.6-1.6,0.3-2c-0.1-0.1-0.2-0.1-0.4-0.1c-0.5-0.1-1.3,0.1-1.6,0.1c-2.9,0.7-6.6,3.7-7.2,6.5
			C365.6,89.1,365.6,89.9,366.5,90.1z"/>
		<path class="st2" d="M386.5,77.6c-1.1-0.2-2-2.2-0.6-2.5c1.9-0.5,5.5-0.5,9.4-0.2c1.4-1.8,2.9-3.6,4.5-5.4
			c0.2-0.2,0.5-0.3,0.8-0.2c0.9,0.2,1.8,1.6,1.1,2.3c-1.1,1.2-2.1,2.4-3.2,3.6c3.5,0.4,7,1,9.8,1.6c2.2,0.5,4,1.1,5,1.6
			c1,0.5,1.4,2.2,0.3,1.9c-0.1,0-0.3-0.1-0.4-0.2c-0.6-0.3-1.7-0.7-3.1-1c-3.4-0.8-8.6-1.5-13.3-1.8c-2.6,3.4-4.8,7.1-6.6,10.9
			c-0.7,1.5-1.4,3.2-1.6,4.8c-0.1,0.8,0.1,1.2,0.7,1.4c0.2,0,0.4,0,0.6,0c3,0,7.5-3.1,9.5-5c0.3-0.3,0.5-0.3,0.7-0.3
			c0.5,0.1,0.4,1.1-0.1,1.8c-1.6,2-7.5,6.6-11,5.9c-1.2-0.2-2.2-1.1-2.6-3c-0.7-3,1.2-6.6,2.6-9.2c1.3-2.5,2.8-5.1,4.5-7.5
			c-2.8-0.1-5.3,0.1-6.7,0.4C386.8,77.6,386.7,77.6,386.5,77.6z"/>
		<path class="st2" d="M398.9,90.6c1.6-2.8,5.6-5.2,9.1-4.4c2.4,0.6,3.8,3,2.3,5.2c-1.3,2-4.8,3.4-7.4,2.8c-0.9-0.2-1.6-0.6-2.2-1.3
			c-0.4,0.7-0.6,1.4-0.7,2.1c-0.2,1.7,1.1,2.5,2.6,2.8c4.8,1.1,10.2-0.9,13.4-4.4c0.2-0.3,0.4-0.4,0.5-0.3c0.3,0.1,0.2,1.2-0.3,1.9
			c-2.5,3.6-8,6.6-13.4,5.4c-2.1-0.5-4-1.7-4.7-3.7C397.2,94.6,397.8,92.4,398.9,90.6z M401.9,91.3c0.2,0.2,0.4,0.3,0.7,0.4
			c1.8,0.4,5.5-1.1,6-3c-0.1-0.1-0.3-0.1-0.4-0.1c-2.2-0.5-5,1.1-6.4,2.6C401.8,91.3,401.8,91.3,401.9,91.3z"/>
		<path class="st2" d="M412.9,103.2c-0.8-0.2-1.5-1.5-1.2-2.1c2.4-4.7,4.9-9.3,7.5-13.9c0.2-0.4,0.6-0.5,0.9-0.4
			c0.8,0.2,1.6,1.4,1.2,2.1c-0.9,1.6-1.8,3.3-2.7,4.9c1.7-1.3,4.4-3,6.6-2.4c2.6,0.7,2.8,4.2,2.5,6.2c-0.1,0.6-0.5,0.8-0.9,0.7
			c-0.6-0.2-1.4-1.1-1.3-1.8c0.1-0.5,0.3-2.4-0.3-2.6c-0.1,0-0.4,0-0.7,0c-3.6,0.4-8.9,6.4-10.9,9
			C413.4,103.2,413.1,103.3,412.9,103.2z"/>
		<path class="st2" d="M434.1,93.4c0.8,0.2,1.6,1.7,0.9,2.4c-1.8,1.9-3.6,4.1-4.6,6.5c-0.2,0.4-1,1.9-0.6,2.4
			c0.1,0.1,0.3,0.2,0.5,0.3c0.7,0.2,2,0.1,2.5,0.1c3.2-0.3,7.4-2.3,10-4.1c0.2-0.2,0.4-0.2,0.5-0.2c0.4,0.1,0.1,1.1-0.5,1.7
			c-2.2,2.2-8.6,6.1-12.4,4.9c-1-0.3-1.8-0.9-2.3-2c-1.3-2.4,0.3-5.3,1.6-7.2c1.1-1.6,2.3-3.2,3.7-4.6
			C433.6,93.4,433.9,93.4,434.1,93.4z M437.3,89.2c0.3,0.1,0.7,0.4,0.8,0.6c0.4,0.5,0.6,1.3,0.2,1.8c-0.3,0.4-0.7,0.9-1,1.3
			c-0.2,0.2-0.5,0.3-0.7,0.2c-0.4-0.1-0.7-0.4-0.8-0.6c-0.4-0.5-0.6-1.3-0.2-1.8c0.3-0.4,0.7-0.9,1.1-1.3
			C436.8,89.1,437.1,89.1,437.3,89.2z"/>
		<path class="st2" d="M441.3,101.9c1.9-2.6,5.9-4.7,9.3-3.6c2.3,0.8,3.5,3.3,1.8,5.3c-1.5,1.9-5,3-7.6,2.2
			c-0.8-0.3-1.6-0.8-2.1-1.5c-0.4,0.6-0.8,1.4-0.9,2.1c-0.4,1.7,0.8,2.6,2.3,3.1c4.6,1.5,10.1,0,13.6-3.3c0.3-0.2,0.4-0.3,0.5-0.3
			c0.3,0.1,0.1,1.2-0.4,1.8c-2.7,3.4-8.5,5.9-13.6,4.2c-2-0.7-3.7-2.1-4.3-4.1C439.3,105.8,440.1,103.6,441.3,101.9z M444.2,102.9
			c0.1,0.2,0.4,0.4,0.7,0.5c1.8,0.6,5.5-0.6,6.2-2.4c-0.1-0.1-0.3-0.1-0.4-0.2c-2.1-0.7-5,0.7-6.5,2
			C444.1,102.8,444.2,102.9,444.2,102.9z"/>
		<path class="st2" d="M447.4,117.2c1.4-3.6,6-5.4,9.6-6.3c0.2-3.5,0.2-8.5,3.6-10.4c1.3-0.7,2.5-0.8,3.5-0.4
			c2.4,0.9,3.8,4.1,2.4,6.6c-0.2,0.4-0.5,0.5-0.8,0.4c-0.7-0.3-1.4-1.5-1-2.2c0.5-1.1,0.3-1.9-0.5-2.2c-0.3-0.1-0.7-0.1-1.2-0.1
			c-1.7,0.2-2.5,1.7-3,3.1c-0.5,1.6-0.7,3.2-0.8,4.8c3.9-0.6,7.9-0.4,11.8,0.1c0.1,0,0.2,0,0.3,0.1c1,0.4,1.1,1.8-0.2,1.7
			c-3.2-0.3-7.8-0.3-12,0.6c-0.2,2.2-0.7,4.3-1.4,6.4c-1.1,3.2-4.2,5.6-7.5,4.5c-0.6-0.2-1.2-0.5-1.8-1
			C446.8,121.6,446.7,119.1,447.4,117.2z M450.1,121.3c0.1,0,0.2,0,0.3,0.1c4.6,1.1,5.9-4,6.4-7.9c-2.7,0.8-5,2.1-6.6,3.9
			C449.3,118.6,448.2,120.6,450.1,121.3z"/>
	</g>
</g>
<circle class="st3" cx="44.4" cy="74.5" r="4"/>
<circle class="st3" cx="62.1" cy="137.2" r="4"/>
<circle class="st3" cx="466.4" cy="138.7" r="4"/>
<circle class="st3" cx="491.1" cy="80.5" r="4"/>
<circle class="st3" cx="491.1" cy="80.5" r="4"/>
</svg>
